<?xml version="1.0" encoding="UTF-8" standalone="no"?>
<!DOCTYPE svg PUBLIC "-//W3C//DTD SVG 1.1//EN"
 "http://www.w3.org/Graphics/SVG/1.1/DTD/svg11.dtd">
<!-- Generated by graphviz version 2.43.0 (0)
 -->
<!-- Title: wxHtmlWindow Pages: 1 -->
<svg width="272pt" height="140pt"
 viewBox="0.00 0.00 272.00 140.00" xmlns="http://www.w3.org/2000/svg" xmlns:xlink="http://www.w3.org/1999/xlink">
<g id="graph0" class="graph" transform="scale(1 1) rotate(0) translate(4 136)">
<title>wxHtmlWindow</title>
<!-- Node1 -->
<g id="node1" class="node">
<title>Node1</title>
<g id="a_node1"><a xlink:title="wxHtmlWindow is probably the only class you will directly use unless you want to do something special...">
<polygon fill="#bfbfbf" stroke="black" points="77.5,-0.5 77.5,-19.5 171.5,-19.5 171.5,-0.5 77.5,-0.5"/>
<text text-anchor="middle" x="124.5" y="-7.5" font-family="Helvetica,sans-Serif" font-size="10.00">wxHtmlWindow</text>
</a>
</g>
</g>
<!-- Node2 -->
<g id="node2" class="node">
<title>Node2</title>
<g id="a_node2"><a xlink:href="classwx_scrolled.html" target="_top" xlink:title="The wxScrolled class manages scrolling for its client area, transforming the coordinates according to...">
<polygon fill="none" stroke="black" points="0,-56.5 0,-75.5 109,-75.5 109,-56.5 0,-56.5"/>
<text text-anchor="middle" x="54.5" y="-63.5" font-family="Helvetica,sans-Serif" font-size="10.00">wxScrolledWindow</text>
</a>
</g>
</g>
<!-- Node2&#45;&gt;Node1 -->
<g id="edge1" class="edge">
<title>Node2&#45;&gt;Node1</title>
<path fill="none" stroke="midnightblue" d="M73.81,-50.1C86.41,-40.38 102.43,-28.03 113.05,-19.83"/>
<polygon fill="midnightblue" stroke="midnightblue" points="71.53,-47.44 65.75,-56.32 75.8,-52.99 71.53,-47.44"/>
</g>
<!-- Node3 -->
<g id="node3" class="node">
<title>Node3</title>
<g id="a_node3"><a xlink:title=" ">
<polygon fill="none" stroke="#bfbfbf" points="40,-112.5 40,-131.5 69,-131.5 69,-112.5 40,-112.5"/>
<text text-anchor="middle" x="54.5" y="-119.5" font-family="Helvetica,sans-Serif" font-size="10.00">T</text>
</a>
</g>
</g>
<!-- Node3&#45;&gt;Node2 -->
<g id="edge2" class="edge">
<title>Node3&#45;&gt;Node2</title>
<path fill="none" stroke="midnightblue" d="M54.5,-101.8C54.5,-92.91 54.5,-82.78 54.5,-75.75"/>
<polygon fill="midnightblue" stroke="midnightblue" points="51,-102.08 54.5,-112.08 58,-102.08 51,-102.08"/>
</g>
<!-- Node4 -->
<g id="node4" class="node">
<title>Node4</title>
<g id="a_node4"><a xlink:href="classwx_html_window_interface.html" target="_top" xlink:title="Abstract interface to a HTML rendering window (such as wxHtmlWindow or wxHtmlListBox) that is passed ...">
<polygon fill="none" stroke="black" points="127,-56.5 127,-75.5 264,-75.5 264,-56.5 127,-56.5"/>
<text text-anchor="middle" x="195.5" y="-63.5" font-family="Helvetica,sans-Serif" font-size="10.00">wxHtmlWindowInterface</text>
</a>
</g>
</g>
<!-- Node4&#45;&gt;Node1 -->
<g id="edge3" class="edge">
<title>Node4&#45;&gt;Node1</title>
<path fill="none" stroke="midnightblue" d="M175.91,-50.1C163.13,-40.38 146.89,-28.03 136.11,-19.83"/>
<polygon fill="midnightblue" stroke="midnightblue" points="174.01,-53.06 184.09,-56.32 178.25,-47.48 174.01,-53.06"/>
</g>
</g>
</svg>
