<?xml version="1.0" encoding="UTF-8" standalone="no"?>
<!DOCTYPE svg PUBLIC "-//W3C//DTD SVG 1.1//EN"
 "http://www.w3.org/Graphics/SVG/1.1/DTD/svg11.dtd">
<!-- Generated by graphviz version 2.43.0 (0)
 -->
<!-- Title: wxDialog Pages: 1 -->
<svg width="1093pt" height="762pt"
 viewBox="0.00 0.00 1093.00 762.00" xmlns="http://www.w3.org/2000/svg" xmlns:xlink="http://www.w3.org/1999/xlink">
<g id="graph0" class="graph" transform="scale(1 1) rotate(0) translate(4 758)">
<title>wxDialog</title>
<!-- Node1 -->
<g id="node1" class="node">
<title>Node1</title>
<g id="a_node1"><a xlink:title="A dialog box is a window with a title bar and sometimes a system menu, which can be moved around the ...">
<polygon fill="#bfbfbf" stroke="black" points="648,-373.5 648,-392.5 710,-392.5 710,-373.5 648,-373.5"/>
<text text-anchor="middle" x="679" y="-380.5" font-family="Helvetica,sans-Serif" font-size="10.00">wxDialog</text>
</a>
</g>
</g>
<!-- Node8 -->
<g id="node8" class="node">
<title>Node8</title>
<g id="a_node8"><a xlink:href="classwx_colour_dialog.html" target="_top" xlink:title="This class represents the colour chooser dialog.">
<polygon fill="none" stroke="black" points="771,-734.5 771,-753.5 865,-753.5 865,-734.5 771,-734.5"/>
<text text-anchor="middle" x="818" y="-741.5" font-family="Helvetica,sans-Serif" font-size="10.00">wxColourDialog</text>
</a>
</g>
</g>
<!-- Node1&#45;&gt;Node8 -->
<g id="edge7" class="edge">
<title>Node1&#45;&gt;Node8</title>
<path fill="none" stroke="midnightblue" d="M681.12,-402.77C685.24,-468.37 701.67,-677.42 746,-725 752.61,-732.1 761.55,-736.65 770.86,-739.55"/>
<polygon fill="midnightblue" stroke="midnightblue" points="684.6,-402.34 680.51,-392.57 677.62,-402.76 684.6,-402.34"/>
</g>
<!-- Node9 -->
<g id="node9" class="node">
<title>Node9</title>
<g id="a_node9"><a xlink:href="classwx_credential_entry_dialog.html" target="_top" xlink:title="This class represents a dialog that requests a user name and a password from the user.">
<polygon fill="none" stroke="black" points="749,-696.5 749,-715.5 887,-715.5 887,-696.5 749,-696.5"/>
<text text-anchor="middle" x="818" y="-703.5" font-family="Helvetica,sans-Serif" font-size="10.00">wxCredentialEntryDialog</text>
</a>
</g>
</g>
<!-- Node1&#45;&gt;Node9 -->
<g id="edge8" class="edge">
<title>Node1&#45;&gt;Node9</title>
<path fill="none" stroke="midnightblue" d="M681.65,-402.91C687.1,-463.74 706.44,-645.5 746,-687 749.7,-690.88 754.09,-694 758.86,-696.5"/>
<polygon fill="midnightblue" stroke="midnightblue" points="685.12,-402.39 680.77,-392.73 678.15,-402.99 685.12,-402.39"/>
</g>
<!-- Node10 -->
<g id="node10" class="node">
<title>Node10</title>
<g id="a_node10"><a xlink:href="classwx_dir_dialog.html" target="_top" xlink:title="This class represents the directory chooser dialog.">
<polygon fill="none" stroke="black" points="779.5,-658.5 779.5,-677.5 856.5,-677.5 856.5,-658.5 779.5,-658.5"/>
<text text-anchor="middle" x="818" y="-665.5" font-family="Helvetica,sans-Serif" font-size="10.00">wxDirDialog</text>
</a>
</g>
</g>
<!-- Node1&#45;&gt;Node10 -->
<g id="edge9" class="edge">
<title>Node1&#45;&gt;Node10</title>
<path fill="none" stroke="midnightblue" d="M682.32,-402.92C689.19,-458.49 711.14,-613.5 746,-649 754.76,-657.92 767.22,-662.8 779.26,-665.42"/>
<polygon fill="midnightblue" stroke="midnightblue" points="685.76,-402.16 681.09,-392.65 678.81,-402.99 685.76,-402.16"/>
</g>
<!-- Node11 -->
<g id="node11" class="node">
<title>Node11</title>
<g id="a_node11"><a xlink:href="classwx_file_dialog.html" target="_top" xlink:title="This class represents the file chooser dialog.">
<polygon fill="none" stroke="black" points="778,-620.5 778,-639.5 858,-639.5 858,-620.5 778,-620.5"/>
<text text-anchor="middle" x="818" y="-627.5" font-family="Helvetica,sans-Serif" font-size="10.00">wxFileDialog</text>
</a>
</g>
</g>
<!-- Node1&#45;&gt;Node11 -->
<g id="edge10" class="edge">
<title>Node1&#45;&gt;Node11</title>
<path fill="none" stroke="midnightblue" d="M679.64,-402.93C679.99,-447.01 687.25,-553.43 746,-611 754.57,-619.39 766.42,-624.19 777.98,-626.89"/>
<polygon fill="midnightblue" stroke="midnightblue" points="683.14,-402.92 679.68,-392.9 676.14,-402.89 683.14,-402.92"/>
</g>
<!-- Node12 -->
<g id="node12" class="node">
<title>Node12</title>
<g id="a_node12"><a xlink:href="classwx_find_replace_dialog.html" target="_top" xlink:title="wxFindReplaceDialog is a standard modeless dialog which is used to allow the user to search for some ...">
<polygon fill="none" stroke="black" points="757,-582.5 757,-601.5 879,-601.5 879,-582.5 757,-582.5"/>
<text text-anchor="middle" x="818" y="-589.5" font-family="Helvetica,sans-Serif" font-size="10.00">wxFindReplaceDialog</text>
</a>
</g>
</g>
<!-- Node1&#45;&gt;Node12 -->
<g id="edge11" class="edge">
<title>Node1&#45;&gt;Node12</title>
<path fill="none" stroke="midnightblue" d="M681.01,-402.96C684.07,-441.6 696.4,-526.89 746,-573 750.11,-576.82 754.91,-579.89 760.03,-582.36"/>
<polygon fill="midnightblue" stroke="midnightblue" points="684.48,-402.3 680.33,-392.56 677.49,-402.76 684.48,-402.3"/>
</g>
<!-- Node13 -->
<g id="node13" class="node">
<title>Node13</title>
<g id="a_node13"><a xlink:href="classwx_font_dialog.html" target="_top" xlink:title="This class represents the font chooser dialog.">
<polygon fill="none" stroke="black" points="776.5,-544.5 776.5,-563.5 859.5,-563.5 859.5,-544.5 776.5,-544.5"/>
<text text-anchor="middle" x="818" y="-551.5" font-family="Helvetica,sans-Serif" font-size="10.00">wxFontDialog</text>
</a>
</g>
</g>
<!-- Node1&#45;&gt;Node13 -->
<g id="edge12" class="edge">
<title>Node1&#45;&gt;Node13</title>
<path fill="none" stroke="midnightblue" d="M682.92,-402.54C688.82,-434.99 705.26,-499.89 746,-535 754.51,-542.33 765.55,-546.87 776.39,-549.66"/>
<polygon fill="midnightblue" stroke="midnightblue" points="686.35,-401.81 681.25,-392.52 679.44,-402.96 686.35,-401.81"/>
</g>
<!-- Node14 -->
<g id="node14" class="node">
<title>Node14</title>
<g id="a_node14"><a xlink:href="classwx_generic_progress_dialog.html" target="_top" xlink:title="This class represents a dialog that shows a short message and a progress bar.">
<polygon fill="none" stroke="black" points="747,-506.5 747,-525.5 889,-525.5 889,-506.5 747,-506.5"/>
<text text-anchor="middle" x="818" y="-513.5" font-family="Helvetica,sans-Serif" font-size="10.00">wxGenericProgressDialog</text>
</a>
</g>
</g>
<!-- Node1&#45;&gt;Node14 -->
<g id="edge13" class="edge">
<title>Node1&#45;&gt;Node14</title>
<path fill="none" stroke="midnightblue" d="M685.97,-402.32C694.86,-427.88 714.07,-472.54 746,-497 751.06,-500.88 756.86,-503.97 762.91,-506.43"/>
<polygon fill="midnightblue" stroke="midnightblue" points="689.23,-401.05 682.78,-392.65 682.59,-403.25 689.23,-401.05"/>
</g>
<!-- Node16 -->
<g id="node16" class="node">
<title>Node16</title>
<g id="a_node16"><a xlink:href="classwx_html_help_dialog.html" target="_top" xlink:title="This class is used by wxHtmlHelpController to display help.">
<polygon fill="none" stroke="black" points="763.5,-468.5 763.5,-487.5 872.5,-487.5 872.5,-468.5 763.5,-468.5"/>
<text text-anchor="middle" x="818" y="-475.5" font-family="Helvetica,sans-Serif" font-size="10.00">wxHtmlHelpDialog</text>
</a>
</g>
</g>
<!-- Node1&#45;&gt;Node16 -->
<g id="edge15" class="edge">
<title>Node1&#45;&gt;Node16</title>
<path fill="none" stroke="midnightblue" d="M691.18,-401.25C702.78,-418.64 722.49,-444.31 746,-459 752.17,-462.85 759.11,-465.93 766.17,-468.39"/>
<polygon fill="midnightblue" stroke="midnightblue" points="693.95,-399.08 685.6,-392.55 688.06,-402.86 693.95,-399.08"/>
</g>
<!-- Node17 -->
<g id="node17" class="node">
<title>Node17</title>
<g id="a_node17"><a xlink:href="classwx_message_dialog.html" target="_top" xlink:title="This class represents a dialog that shows a single or multi&#45;line message, with a choice of OK,...">
<polygon fill="none" stroke="black" points="765,-430.5 765,-449.5 871,-449.5 871,-430.5 765,-430.5"/>
<text text-anchor="middle" x="818" y="-437.5" font-family="Helvetica,sans-Serif" font-size="10.00">wxMessageDialog</text>
</a>
</g>
</g>
<!-- Node1&#45;&gt;Node17 -->
<g id="edge16" class="edge">
<title>Node1&#45;&gt;Node17</title>
<path fill="none" stroke="midnightblue" d="M702.85,-398.14C715.22,-405.81 731,-414.8 746,-421 754.84,-424.66 764.6,-427.8 773.97,-430.42"/>
<polygon fill="midnightblue" stroke="midnightblue" points="704.44,-395 694.12,-392.59 700.68,-400.91 704.44,-395"/>
</g>
<!-- Node18 -->
<g id="node18" class="node">
<title>Node18</title>
<g id="a_node18"><a xlink:href="classwx_multi_choice_dialog.html" target="_top" xlink:title="This class represents a dialog that shows a list of strings, and allows the user to select one or mor...">
<polygon fill="none" stroke="black" points="758,-392.5 758,-411.5 878,-411.5 878,-392.5 758,-392.5"/>
<text text-anchor="middle" x="818" y="-399.5" font-family="Helvetica,sans-Serif" font-size="10.00">wxMultiChoiceDialog</text>
</a>
</g>
</g>
<!-- Node1&#45;&gt;Node18 -->
<g id="edge17" class="edge">
<title>Node1&#45;&gt;Node18</title>
<path fill="none" stroke="midnightblue" d="M720.04,-388.55C731.84,-390.19 745.01,-392.02 757.75,-393.78"/>
<polygon fill="midnightblue" stroke="midnightblue" points="720.45,-385.08 710.07,-387.17 719.49,-392.01 720.45,-385.08"/>
</g>
<!-- Node19 -->
<g id="node19" class="node">
<title>Node19</title>
<g id="a_node19"><a xlink:href="classwx_number_entry_dialog.html" target="_top" xlink:title="This class represents a dialog that requests a numeric input from the user.">
<polygon fill="none" stroke="black" points="754.5,-354.5 754.5,-373.5 881.5,-373.5 881.5,-354.5 754.5,-354.5"/>
<text text-anchor="middle" x="818" y="-361.5" font-family="Helvetica,sans-Serif" font-size="10.00">wxNumberEntryDialog</text>
</a>
</g>
</g>
<!-- Node1&#45;&gt;Node19 -->
<g id="edge18" class="edge">
<title>Node1&#45;&gt;Node19</title>
<path fill="none" stroke="midnightblue" d="M720.01,-377.45C730.79,-375.96 742.72,-374.3 754.41,-372.68"/>
<polygon fill="midnightblue" stroke="midnightblue" points="719.49,-373.99 710.07,-378.83 720.45,-380.92 719.49,-373.99"/>
</g>
<!-- Node20 -->
<g id="node20" class="node">
<title>Node20</title>
<g id="a_node20"><a xlink:href="classwx_p_g_array_editor_dialog.html" target="_top" xlink:title=" ">
<polygon fill="none" stroke="black" points="752.5,-316.5 752.5,-335.5 883.5,-335.5 883.5,-316.5 752.5,-316.5"/>
<text text-anchor="middle" x="818" y="-323.5" font-family="Helvetica,sans-Serif" font-size="10.00">wxPGArrayEditorDialog</text>
</a>
</g>
</g>
<!-- Node1&#45;&gt;Node20 -->
<g id="edge19" class="edge">
<title>Node1&#45;&gt;Node20</title>
<path fill="none" stroke="midnightblue" d="M702.85,-367.86C715.22,-360.19 731,-351.2 746,-345 754.84,-341.34 764.6,-338.2 773.97,-335.58"/>
<polygon fill="midnightblue" stroke="midnightblue" points="700.68,-365.09 694.12,-373.41 704.44,-371 700.68,-365.09"/>
</g>
<!-- Node22 -->
<g id="node22" class="node">
<title>Node22</title>
<g id="a_node22"><a xlink:href="classwx_print_abort_dialog.html" target="_top" xlink:title="The dialog created by default by the print framework that enables aborting the printing process.">
<polygon fill="none" stroke="black" points="762.5,-278.5 762.5,-297.5 873.5,-297.5 873.5,-278.5 762.5,-278.5"/>
<text text-anchor="middle" x="818" y="-285.5" font-family="Helvetica,sans-Serif" font-size="10.00">wxPrintAbortDialog</text>
</a>
</g>
</g>
<!-- Node1&#45;&gt;Node22 -->
<g id="edge21" class="edge">
<title>Node1&#45;&gt;Node22</title>
<path fill="none" stroke="midnightblue" d="M691.18,-364.75C702.78,-347.36 722.49,-321.69 746,-307 752.17,-303.15 759.11,-300.07 766.17,-297.61"/>
<polygon fill="midnightblue" stroke="midnightblue" points="688.06,-363.14 685.6,-373.45 693.95,-366.92 688.06,-363.14"/>
</g>
<!-- Node23 -->
<g id="node23" class="node">
<title>Node23</title>
<g id="a_node23"><a xlink:href="classwx_property_sheet_dialog.html" target="_top" xlink:title="This class represents a property sheet dialog: a tabbed dialog for showing settings.">
<polygon fill="none" stroke="black" points="752.5,-240.5 752.5,-259.5 883.5,-259.5 883.5,-240.5 752.5,-240.5"/>
<text text-anchor="middle" x="818" y="-247.5" font-family="Helvetica,sans-Serif" font-size="10.00">wxPropertySheetDialog</text>
</a>
</g>
</g>
<!-- Node1&#45;&gt;Node23 -->
<g id="edge22" class="edge">
<title>Node1&#45;&gt;Node23</title>
<path fill="none" stroke="midnightblue" d="M685.97,-363.68C694.86,-338.12 714.07,-293.46 746,-269 751.06,-265.12 756.86,-262.03 762.91,-259.57"/>
<polygon fill="midnightblue" stroke="midnightblue" points="682.59,-362.75 682.78,-373.35 689.23,-364.95 682.59,-362.75"/>
</g>
<!-- Node25 -->
<g id="node25" class="node">
<title>Node25</title>
<g id="a_node25"><a xlink:href="classwx_rearrange_dialog.html" target="_top" xlink:title="A dialog allowing the user to rearrange the specified items.">
<polygon fill="none" stroke="black" points="761.5,-202.5 761.5,-221.5 874.5,-221.5 874.5,-202.5 761.5,-202.5"/>
<text text-anchor="middle" x="818" y="-209.5" font-family="Helvetica,sans-Serif" font-size="10.00">wxRearrangeDialog</text>
</a>
</g>
</g>
<!-- Node1&#45;&gt;Node25 -->
<g id="edge24" class="edge">
<title>Node1&#45;&gt;Node25</title>
<path fill="none" stroke="midnightblue" d="M682.92,-363.46C688.82,-331.01 705.26,-266.11 746,-231 750.54,-227.08 755.81,-223.97 761.38,-221.49"/>
<polygon fill="midnightblue" stroke="midnightblue" points="679.44,-363.04 681.25,-373.48 686.35,-364.19 679.44,-363.04"/>
</g>
<!-- Node26 -->
<g id="node26" class="node">
<title>Node26</title>
<g id="a_node26"><a xlink:href="classwx_rich_text_style_organiser_dialog.html" target="_top" xlink:title="This class shows a style sheet and allows the user to edit, add and remove styles.">
<polygon fill="none" stroke="black" points="746,-153 746,-183 890,-183 890,-153 746,-153"/>
<text text-anchor="start" x="754" y="-171" font-family="Helvetica,sans-Serif" font-size="10.00">wxRichTextStyleOrganiser</text>
<text text-anchor="middle" x="818" y="-160" font-family="Helvetica,sans-Serif" font-size="10.00">Dialog</text>
</a>
</g>
</g>
<!-- Node1&#45;&gt;Node26 -->
<g id="edge25" class="edge">
<title>Node1&#45;&gt;Node26</title>
<path fill="none" stroke="midnightblue" d="M681.38,-362.84C685.08,-324.52 698.44,-240.76 746,-193 749.87,-189.11 754.39,-185.82 759.23,-183.05"/>
<polygon fill="midnightblue" stroke="midnightblue" points="677.86,-362.92 680.52,-373.18 684.84,-363.51 677.86,-362.92"/>
</g>
<!-- Node27 -->
<g id="node27" class="node">
<title>Node27</title>
<g id="a_node27"><a xlink:href="classwx_single_choice_dialog.html" target="_top" xlink:title="This class represents a dialog that shows a list of strings, and allows the user to select one.">
<polygon fill="none" stroke="black" points="755.5,-114.5 755.5,-133.5 880.5,-133.5 880.5,-114.5 755.5,-114.5"/>
<text text-anchor="middle" x="818" y="-121.5" font-family="Helvetica,sans-Serif" font-size="10.00">wxSingleChoiceDialog</text>
</a>
</g>
</g>
<!-- Node1&#45;&gt;Node27 -->
<g id="edge26" class="edge">
<title>Node1&#45;&gt;Node27</title>
<path fill="none" stroke="midnightblue" d="M679.3,-362.98C678.83,-317.22 684.38,-204.2 746,-143 749.89,-139.13 754.48,-136.03 759.42,-133.54"/>
<polygon fill="midnightblue" stroke="midnightblue" points="675.8,-363.17 679.51,-373.09 682.8,-363.02 675.8,-363.17"/>
</g>
<!-- Node28 -->
<g id="node28" class="node">
<title>Node28</title>
<g id="a_node28"><a xlink:href="classwx_symbol_picker_dialog.html" target="_top" xlink:title="wxSymbolPickerDialog presents the user with a choice of fonts and a grid of available characters.">
<polygon fill="none" stroke="black" points="754,-76.5 754,-95.5 882,-95.5 882,-76.5 754,-76.5"/>
<text text-anchor="middle" x="818" y="-83.5" font-family="Helvetica,sans-Serif" font-size="10.00">wxSymbolPickerDialog</text>
</a>
</g>
</g>
<!-- Node1&#45;&gt;Node28 -->
<g id="edge27" class="edge">
<title>Node1&#45;&gt;Node28</title>
<path fill="none" stroke="midnightblue" d="M682.11,-362.94C688.54,-305.54 709.69,-142.35 746,-105 749.74,-101.16 754.16,-98.06 758.94,-95.58"/>
<polygon fill="midnightblue" stroke="midnightblue" points="678.59,-362.9 680.99,-373.22 685.55,-363.66 678.59,-362.9"/>
</g>
<!-- Node29 -->
<g id="node29" class="node">
<title>Node29</title>
<g id="a_node29"><a xlink:href="classwx_text_entry_dialog.html" target="_top" xlink:title="This class represents a dialog that requests a one&#45;line text string from the user.">
<polygon fill="none" stroke="black" points="764,-38.5 764,-57.5 872,-57.5 872,-38.5 764,-38.5"/>
<text text-anchor="middle" x="818" y="-45.5" font-family="Helvetica,sans-Serif" font-size="10.00">wxTextEntryDialog</text>
</a>
</g>
</g>
<!-- Node1&#45;&gt;Node29 -->
<g id="edge28" class="edge">
<title>Node1&#45;&gt;Node29</title>
<path fill="none" stroke="midnightblue" d="M681.47,-363.12C686.49,-300.73 704.94,-110.41 746,-67 750.91,-61.81 757.07,-57.98 763.7,-55.16"/>
<polygon fill="midnightblue" stroke="midnightblue" points="677.97,-362.97 680.69,-373.22 684.95,-363.52 677.97,-362.97"/>
</g>
<!-- Node31 -->
<g id="node31" class="node">
<title>Node31</title>
<g id="a_node31"><a xlink:href="classwx_wizard.html" target="_top" xlink:title="wxWizard is the central class for implementing &#39;wizard&#45;like&#39; dialogs.">
<polygon fill="none" stroke="black" points="785.5,-0.5 785.5,-19.5 850.5,-19.5 850.5,-0.5 785.5,-0.5"/>
<text text-anchor="middle" x="818" y="-7.5" font-family="Helvetica,sans-Serif" font-size="10.00">wxWizard</text>
</a>
</g>
</g>
<!-- Node1&#45;&gt;Node31 -->
<g id="edge30" class="edge">
<title>Node1&#45;&gt;Node31</title>
<path fill="none" stroke="midnightblue" d="M680.97,-363.41C684.68,-296.51 700.13,-78.55 746,-29 755.97,-18.23 771.31,-13.3 785.18,-11.14"/>
<polygon fill="midnightblue" stroke="midnightblue" points="677.47,-363.27 680.44,-373.44 684.46,-363.64 677.47,-363.27"/>
</g>
<!-- Node2 -->
<g id="node2" class="node">
<title>Node2</title>
<g id="a_node2"><a xlink:href="classwx_top_level_window.html" target="_top" xlink:title="wxTopLevelWindow is a common base class for wxDialog and wxFrame.">
<polygon fill="none" stroke="black" points="499,-373.5 499,-392.5 612,-392.5 612,-373.5 499,-373.5"/>
<text text-anchor="middle" x="555.5" y="-380.5" font-family="Helvetica,sans-Serif" font-size="10.00">wxTopLevelWindow</text>
</a>
</g>
</g>
<!-- Node2&#45;&gt;Node1 -->
<g id="edge1" class="edge">
<title>Node2&#45;&gt;Node1</title>
<path fill="none" stroke="midnightblue" d="M622.32,-383C631.2,-383 639.94,-383 647.77,-383"/>
<polygon fill="midnightblue" stroke="midnightblue" points="622.27,-379.5 612.27,-383 622.27,-386.5 622.27,-379.5"/>
</g>
<!-- Node3 -->
<g id="node3" class="node">
<title>Node3</title>
<g id="a_node3"><a xlink:href="classwx_non_owned_window.html" target="_top" xlink:title="Common base class for all non&#45;child windows.">
<polygon fill="none" stroke="black" points="340,-373.5 340,-392.5 463,-392.5 463,-373.5 340,-373.5"/>
<text text-anchor="middle" x="401.5" y="-380.5" font-family="Helvetica,sans-Serif" font-size="10.00">wxNonOwnedWindow</text>
</a>
</g>
</g>
<!-- Node3&#45;&gt;Node2 -->
<g id="edge2" class="edge">
<title>Node3&#45;&gt;Node2</title>
<path fill="none" stroke="midnightblue" d="M473.03,-383C481.62,-383 490.3,-383 498.64,-383"/>
<polygon fill="midnightblue" stroke="midnightblue" points="473.01,-379.5 463.01,-383 473.01,-386.5 473.01,-379.5"/>
</g>
<!-- Node4 -->
<g id="node4" class="node">
<title>Node4</title>
<g id="a_node4"><a xlink:href="classwx_window.html" target="_top" xlink:title="wxWindow is the base class for all windows and represents any visible object on screen.">
<polygon fill="none" stroke="black" points="234,-373.5 234,-392.5 304,-392.5 304,-373.5 234,-373.5"/>
<text text-anchor="middle" x="269" y="-380.5" font-family="Helvetica,sans-Serif" font-size="10.00">wxWindow</text>
</a>
</g>
</g>
<!-- Node4&#45;&gt;Node3 -->
<g id="edge3" class="edge">
<title>Node4&#45;&gt;Node3</title>
<path fill="none" stroke="midnightblue" d="M314.39,-383C322.62,-383 331.34,-383 339.94,-383"/>
<polygon fill="midnightblue" stroke="midnightblue" points="314.29,-379.5 304.29,-383 314.29,-386.5 314.29,-379.5"/>
</g>
<!-- Node5 -->
<g id="node5" class="node">
<title>Node5</title>
<g id="a_node5"><a xlink:href="classwx_evt_handler.html" target="_top" xlink:title="A class that can handle events from the windowing system.">
<polygon fill="none" stroke="black" points="113,-373.5 113,-392.5 198,-392.5 198,-373.5 113,-373.5"/>
<text text-anchor="middle" x="155.5" y="-380.5" font-family="Helvetica,sans-Serif" font-size="10.00">wxEvtHandler</text>
</a>
</g>
</g>
<!-- Node5&#45;&gt;Node4 -->
<g id="edge4" class="edge">
<title>Node5&#45;&gt;Node4</title>
<path fill="none" stroke="midnightblue" d="M208.11,-383C216.8,-383 225.63,-383 233.74,-383"/>
<polygon fill="midnightblue" stroke="midnightblue" points="208.02,-379.5 198.02,-383 208.02,-386.5 208.02,-379.5"/>
</g>
<!-- Node6 -->
<g id="node6" class="node">
<title>Node6</title>
<g id="a_node6"><a xlink:href="classwx_object.html" target="_top" xlink:title="This is the root class of many of the wxWidgets classes.">
<polygon fill="none" stroke="black" points="7.5,-392.5 7.5,-411.5 69.5,-411.5 69.5,-392.5 7.5,-392.5"/>
<text text-anchor="middle" x="38.5" y="-399.5" font-family="Helvetica,sans-Serif" font-size="10.00">wxObject</text>
</a>
</g>
</g>
<!-- Node6&#45;&gt;Node5 -->
<g id="edge5" class="edge">
<title>Node6&#45;&gt;Node5</title>
<path fill="none" stroke="midnightblue" d="M79.67,-395.36C90.4,-393.59 102.01,-391.67 112.81,-389.89"/>
<polygon fill="midnightblue" stroke="midnightblue" points="79.01,-391.92 69.71,-397.01 80.15,-398.83 79.01,-391.92"/>
</g>
<!-- Node7 -->
<g id="node7" class="node">
<title>Node7</title>
<g id="a_node7"><a xlink:href="classwx_trackable.html" target="_top" xlink:title="Add&#45;on base class for a trackable object.">
<polygon fill="none" stroke="black" points="0,-354.5 0,-373.5 77,-373.5 77,-354.5 0,-354.5"/>
<text text-anchor="middle" x="38.5" y="-361.5" font-family="Helvetica,sans-Serif" font-size="10.00">wxTrackable</text>
</a>
</g>
</g>
<!-- Node7&#45;&gt;Node5 -->
<g id="edge6" class="edge">
<title>Node7&#45;&gt;Node5</title>
<path fill="none" stroke="midnightblue" d="M87.29,-371.89C95.75,-373.29 104.5,-374.74 112.78,-376.11"/>
<polygon fill="midnightblue" stroke="midnightblue" points="87.59,-368.4 77.16,-370.22 86.45,-375.3 87.59,-368.4"/>
</g>
<!-- Node15 -->
<g id="node15" class="node">
<title>Node15</title>
<g id="a_node15"><a xlink:href="classwx_progress_dialog.html" target="_top" xlink:title="If supported by the platform this class will provide the platform&#39;s native progress dialog,...">
<polygon fill="none" stroke="black" points="953.5,-506.5 953.5,-525.5 1057.5,-525.5 1057.5,-506.5 953.5,-506.5"/>
<text text-anchor="middle" x="1005.5" y="-513.5" font-family="Helvetica,sans-Serif" font-size="10.00">wxProgressDialog</text>
</a>
</g>
</g>
<!-- Node14&#45;&gt;Node15 -->
<g id="edge14" class="edge">
<title>Node14&#45;&gt;Node15</title>
<path fill="none" stroke="midnightblue" d="M899.24,-516C917.59,-516 936.61,-516 953.35,-516"/>
<polygon fill="midnightblue" stroke="midnightblue" points="899.13,-512.5 889.13,-516 899.13,-519.5 899.13,-512.5"/>
</g>
<!-- Node21 -->
<g id="node21" class="node">
<title>Node21</title>
<g id="a_node21"><a xlink:href="classwx_p_g_array_string_editor_dialog.html" target="_top" xlink:title=" ">
<polygon fill="none" stroke="black" points="926,-316.5 926,-335.5 1085,-335.5 1085,-316.5 926,-316.5"/>
<text text-anchor="middle" x="1005.5" y="-323.5" font-family="Helvetica,sans-Serif" font-size="10.00">wxPGArrayStringEditorDialog</text>
</a>
</g>
</g>
<!-- Node20&#45;&gt;Node21 -->
<g id="edge20" class="edge">
<title>Node20&#45;&gt;Node21</title>
<path fill="none" stroke="midnightblue" d="M893.63,-326C904.2,-326 915.1,-326 925.74,-326"/>
<polygon fill="midnightblue" stroke="midnightblue" points="893.62,-322.5 883.62,-326 893.62,-329.5 893.62,-322.5"/>
</g>
<!-- Node24 -->
<g id="node24" class="node">
<title>Node24</title>
<g id="a_node24"><a xlink:href="classwx_rich_text_formatting_dialog.html" target="_top" xlink:title="This dialog allows the user to edit a character and/or paragraph style.">
<polygon fill="none" stroke="black" points="927,-240.5 927,-259.5 1084,-259.5 1084,-240.5 927,-240.5"/>
<text text-anchor="middle" x="1005.5" y="-247.5" font-family="Helvetica,sans-Serif" font-size="10.00">wxRichTextFormattingDialog</text>
</a>
</g>
</g>
<!-- Node23&#45;&gt;Node24 -->
<g id="edge23" class="edge">
<title>Node23&#45;&gt;Node24</title>
<path fill="none" stroke="midnightblue" d="M893.87,-250C904.68,-250 915.84,-250 926.71,-250"/>
<polygon fill="midnightblue" stroke="midnightblue" points="893.62,-246.5 883.62,-250 893.62,-253.5 893.62,-246.5"/>
</g>
<!-- Node30 -->
<g id="node30" class="node">
<title>Node30</title>
<g id="a_node30"><a xlink:href="classwx_password_entry_dialog.html" target="_top" xlink:title="This class represents a dialog that requests a one&#45;line password string from the user.">
<polygon fill="none" stroke="black" points="938.5,-38.5 938.5,-57.5 1072.5,-57.5 1072.5,-38.5 938.5,-38.5"/>
<text text-anchor="middle" x="1005.5" y="-45.5" font-family="Helvetica,sans-Serif" font-size="10.00">wxPasswordEntryDialog</text>
</a>
</g>
</g>
<!-- Node29&#45;&gt;Node30 -->
<g id="edge29" class="edge">
<title>Node29&#45;&gt;Node30</title>
<path fill="none" stroke="midnightblue" d="M882.31,-48C900.42,-48 920.19,-48 938.46,-48"/>
<polygon fill="midnightblue" stroke="midnightblue" points="882.16,-44.5 872.16,-48 882.16,-51.5 882.16,-44.5"/>
</g>
</g>
</svg>
