<?xml version="1.0" encoding="UTF-8" standalone="no"?>
<!DOCTYPE svg PUBLIC "-//W3C//DTD SVG 1.1//EN"
 "http://www.w3.org/Graphics/SVG/1.1/DTD/svg11.dtd">
<!-- Generated by graphviz version 2.43.0 (0)
 -->
<!-- Title: wxNumericProperty Pages: 1 -->
<svg width="319pt" height="196pt"
 viewBox="0.00 0.00 318.50 196.00" xmlns="http://www.w3.org/2000/svg" xmlns:xlink="http://www.w3.org/1999/xlink">
<g id="graph0" class="graph" transform="scale(1 1) rotate(0) translate(4 192)">
<title>wxNumericProperty</title>
<!-- Node1 -->
<g id="node1" class="node">
<title>Node1</title>
<g id="a_node1"><a xlink:title="This is an abstract class which serves as a base class for numeric properties, like wxIntProperty,...">
<polygon fill="#bfbfbf" stroke="black" points="101,-56.5 101,-75.5 214,-75.5 214,-56.5 101,-56.5"/>
<text text-anchor="middle" x="157.5" y="-63.5" font-family="Helvetica,sans-Serif" font-size="10.00">wxNumericProperty</text>
</a>
</g>
</g>
<!-- Node4 -->
<g id="node4" class="node">
<title>Node4</title>
<g id="a_node4"><a xlink:href="classwx_float_property.html" target="_top" xlink:title="Basic property with double&#45;precision floating point value.">
<polygon fill="none" stroke="black" points="0,-0.5 0,-19.5 97,-19.5 97,-0.5 0,-0.5"/>
<text text-anchor="middle" x="48.5" y="-7.5" font-family="Helvetica,sans-Serif" font-size="10.00">wxFloatProperty</text>
</a>
</g>
</g>
<!-- Node1&#45;&gt;Node4 -->
<g id="edge3" class="edge">
<title>Node1&#45;&gt;Node4</title>
<path fill="none" stroke="midnightblue" d="M130.98,-51.86C110.77,-41.85 83.51,-28.35 65.97,-19.65"/>
<polygon fill="midnightblue" stroke="midnightblue" points="129.47,-55.02 139.99,-56.32 132.58,-48.75 129.47,-55.02"/>
</g>
<!-- Node5 -->
<g id="node5" class="node">
<title>Node5</title>
<g id="a_node5"><a xlink:href="classwx_int_property.html" target="_top" xlink:title="Basic property with integer value.">
<polygon fill="none" stroke="black" points="115,-0.5 115,-19.5 200,-19.5 200,-0.5 115,-0.5"/>
<text text-anchor="middle" x="157.5" y="-7.5" font-family="Helvetica,sans-Serif" font-size="10.00">wxIntProperty</text>
</a>
</g>
</g>
<!-- Node1&#45;&gt;Node5 -->
<g id="edge4" class="edge">
<title>Node1&#45;&gt;Node5</title>
<path fill="none" stroke="midnightblue" d="M157.5,-45.8C157.5,-36.91 157.5,-26.78 157.5,-19.75"/>
<polygon fill="midnightblue" stroke="midnightblue" points="154,-46.08 157.5,-56.08 161,-46.08 154,-46.08"/>
</g>
<!-- Node6 -->
<g id="node6" class="node">
<title>Node6</title>
<g id="a_node6"><a xlink:href="classwx_u_int_property.html" target="_top" xlink:title="Basic property with unsigned integer value.">
<polygon fill="none" stroke="black" points="218.5,-0.5 218.5,-19.5 310.5,-19.5 310.5,-0.5 218.5,-0.5"/>
<text text-anchor="middle" x="264.5" y="-7.5" font-family="Helvetica,sans-Serif" font-size="10.00">wxUIntProperty</text>
</a>
</g>
</g>
<!-- Node1&#45;&gt;Node6 -->
<g id="edge5" class="edge">
<title>Node1&#45;&gt;Node6</title>
<path fill="none" stroke="midnightblue" d="M183.8,-51.73C203.61,-41.73 230.21,-28.31 247.35,-19.65"/>
<polygon fill="midnightblue" stroke="midnightblue" points="182.04,-48.69 174.69,-56.32 185.2,-54.94 182.04,-48.69"/>
</g>
<!-- Node2 -->
<g id="node2" class="node">
<title>Node2</title>
<g id="a_node2"><a xlink:href="classwx_p_g_property.html" target="_top" xlink:title="wxPGProperty is base class for all wxPropertyGrid properties and as such it is not intended to be ins...">
<polygon fill="none" stroke="black" points="114.5,-112.5 114.5,-131.5 200.5,-131.5 200.5,-112.5 114.5,-112.5"/>
<text text-anchor="middle" x="157.5" y="-119.5" font-family="Helvetica,sans-Serif" font-size="10.00">wxPGProperty</text>
</a>
</g>
</g>
<!-- Node2&#45;&gt;Node1 -->
<g id="edge1" class="edge">
<title>Node2&#45;&gt;Node1</title>
<path fill="none" stroke="midnightblue" d="M157.5,-101.8C157.5,-92.91 157.5,-82.78 157.5,-75.75"/>
<polygon fill="midnightblue" stroke="midnightblue" points="154,-102.08 157.5,-112.08 161,-102.08 154,-102.08"/>
</g>
<!-- Node3 -->
<g id="node3" class="node">
<title>Node3</title>
<g id="a_node3"><a xlink:href="classwx_object.html" target="_top" xlink:title="This is the root class of many of the wxWidgets classes.">
<polygon fill="none" stroke="black" points="126.5,-168.5 126.5,-187.5 188.5,-187.5 188.5,-168.5 126.5,-168.5"/>
<text text-anchor="middle" x="157.5" y="-175.5" font-family="Helvetica,sans-Serif" font-size="10.00">wxObject</text>
</a>
</g>
</g>
<!-- Node3&#45;&gt;Node2 -->
<g id="edge2" class="edge">
<title>Node3&#45;&gt;Node2</title>
<path fill="none" stroke="midnightblue" d="M157.5,-157.8C157.5,-148.91 157.5,-138.78 157.5,-131.75"/>
<polygon fill="midnightblue" stroke="midnightblue" points="154,-158.08 157.5,-168.08 161,-158.08 154,-158.08"/>
</g>
</g>
</svg>
