<?xml version="1.0" encoding="UTF-8" standalone="no"?>
<!DOCTYPE svg PUBLIC "-//W3C//DTD SVG 1.1//EN"
 "http://www.w3.org/Graphics/SVG/1.1/DTD/svg11.dtd">
<!-- Generated by graphviz version 2.43.0 (0)
 -->
<!-- Title: wxAnimationDecoder Pages: 1 -->
<svg width="319pt" height="140pt"
 viewBox="0.00 0.00 318.50 140.00" xmlns="http://www.w3.org/2000/svg" xmlns:xlink="http://www.w3.org/1999/xlink">
<g id="graph0" class="graph" transform="scale(1 1) rotate(0) translate(4 136)">
<title>wxAnimationDecoder</title>
<!-- Node1 -->
<g id="node1" class="node">
<title>Node1</title>
<g id="a_node1"><a xlink:title="wxAnimationDecoder is used by wxAnimation for loading frames and other information for the animation ...">
<polygon fill="#bfbfbf" stroke="black" points="89.5,-56.5 89.5,-75.5 211.5,-75.5 211.5,-56.5 89.5,-56.5"/>
<text text-anchor="middle" x="150.5" y="-63.5" font-family="Helvetica,sans-Serif" font-size="10.00">wxAnimationDecoder</text>
</a>
</g>
</g>
<!-- Node3 -->
<g id="node3" class="node">
<title>Node3</title>
<g id="a_node3"><a xlink:href="classwx_a_n_i_decoder.html" target="_top" xlink:title="An animation decoder supporting animated cursor (.ani) files.">
<polygon fill="none" stroke="black" points="0,-0.5 0,-19.5 89,-19.5 89,-0.5 0,-0.5"/>
<text text-anchor="middle" x="44.5" y="-7.5" font-family="Helvetica,sans-Serif" font-size="10.00">wxANIDecoder</text>
</a>
</g>
</g>
<!-- Node1&#45;&gt;Node3 -->
<g id="edge2" class="edge">
<title>Node1&#45;&gt;Node3</title>
<path fill="none" stroke="midnightblue" d="M124.44,-51.73C104.82,-41.73 78.47,-28.31 61.49,-19.65"/>
<polygon fill="midnightblue" stroke="midnightblue" points="122.97,-54.9 133.47,-56.32 126.15,-48.67 122.97,-54.9"/>
</g>
<!-- Node4 -->
<g id="node4" class="node">
<title>Node4</title>
<g id="a_node4"><a xlink:href="classwx_g_i_f_decoder.html" target="_top" xlink:title="An animation decoder supporting animated GIF files.">
<polygon fill="none" stroke="black" points="106.5,-0.5 106.5,-19.5 194.5,-19.5 194.5,-0.5 106.5,-0.5"/>
<text text-anchor="middle" x="150.5" y="-7.5" font-family="Helvetica,sans-Serif" font-size="10.00">wxGIFDecoder</text>
</a>
</g>
</g>
<!-- Node1&#45;&gt;Node4 -->
<g id="edge3" class="edge">
<title>Node1&#45;&gt;Node4</title>
<path fill="none" stroke="midnightblue" d="M150.5,-45.8C150.5,-36.91 150.5,-26.78 150.5,-19.75"/>
<polygon fill="midnightblue" stroke="midnightblue" points="147,-46.08 150.5,-56.08 154,-46.08 147,-46.08"/>
</g>
<!-- Node5 -->
<g id="node5" class="node">
<title>Node5</title>
<g id="a_node5"><a xlink:href="classwx_web_p_decoder.html" target="_top" xlink:title=" ">
<polygon fill="none" stroke="black" points="212.5,-0.5 212.5,-19.5 310.5,-19.5 310.5,-0.5 212.5,-0.5"/>
<text text-anchor="middle" x="261.5" y="-7.5" font-family="Helvetica,sans-Serif" font-size="10.00">wxWebPDecoder</text>
</a>
</g>
</g>
<!-- Node1&#45;&gt;Node5 -->
<g id="edge4" class="edge">
<title>Node1&#45;&gt;Node5</title>
<path fill="none" stroke="midnightblue" d="M177.51,-51.86C198.09,-41.85 225.84,-28.35 243.71,-19.65"/>
<polygon fill="midnightblue" stroke="midnightblue" points="175.8,-48.8 168.33,-56.32 178.86,-55.1 175.8,-48.8"/>
</g>
<!-- Node2 -->
<g id="node2" class="node">
<title>Node2</title>
<g id="a_node2"><a xlink:href="classwx_object_ref_data.html" target="_top" xlink:title="This class is just a typedef to wxRefCounter and is used by wxObject.">
<polygon fill="none" stroke="black" points="99.5,-112.5 99.5,-131.5 201.5,-131.5 201.5,-112.5 99.5,-112.5"/>
<text text-anchor="middle" x="150.5" y="-119.5" font-family="Helvetica,sans-Serif" font-size="10.00">wxObjectRefData</text>
</a>
</g>
</g>
<!-- Node2&#45;&gt;Node1 -->
<g id="edge1" class="edge">
<title>Node2&#45;&gt;Node1</title>
<path fill="none" stroke="midnightblue" d="M150.5,-101.8C150.5,-92.91 150.5,-82.78 150.5,-75.75"/>
<polygon fill="midnightblue" stroke="midnightblue" points="147,-102.08 150.5,-112.08 154,-102.08 147,-102.08"/>
</g>
</g>
</svg>
