<?xml version="1.0" encoding="UTF-8" standalone="no"?>
<!DOCTYPE svg PUBLIC "-//W3C//DTD SVG 1.1//EN"
 "http://www.w3.org/Graphics/SVG/1.1/DTD/svg11.dtd">
<!-- Generated by graphviz version 2.43.0 (0)
 -->
<!-- Title: wxFrame Pages: 1 -->
<svg width="1049pt" height="370pt"
 viewBox="0.00 0.00 1049.00 370.00" xmlns="http://www.w3.org/2000/svg" xmlns:xlink="http://www.w3.org/1999/xlink">
<g id="graph0" class="graph" transform="scale(1 1) rotate(0) translate(4 366)">
<title>wxFrame</title>
<!-- Node1 -->
<g id="node1" class="node">
<title>Node1</title>
<g id="a_node1"><a xlink:title="A frame is a window whose size and position can (usually) be changed by the user.">
<polygon fill="#bfbfbf" stroke="black" points="648,-171.5 648,-190.5 710,-190.5 710,-171.5 648,-171.5"/>
<text text-anchor="middle" x="679" y="-178.5" font-family="Helvetica,sans-Serif" font-size="10.00">wxFrame</text>
</a>
</g>
</g>
<!-- Node8 -->
<g id="node8" class="node">
<title>Node8</title>
<g id="a_node8"><a xlink:href="classwx_aui_floating_frame.html" target="_top" xlink:title=" ">
<polygon fill="none" stroke="black" points="751.5,-342.5 751.5,-361.5 868.5,-361.5 868.5,-342.5 751.5,-342.5"/>
<text text-anchor="middle" x="810" y="-349.5" font-family="Helvetica,sans-Serif" font-size="10.00">wxAuiFloatingFrame</text>
</a>
</g>
</g>
<!-- Node1&#45;&gt;Node8 -->
<g id="edge7" class="edge">
<title>Node1&#45;&gt;Node8</title>
<path fill="none" stroke="midnightblue" d="M683.13,-200.87C689.28,-233.27 706.01,-297.42 746,-333 750.35,-336.87 755.47,-339.96 760.88,-342.41"/>
<polygon fill="midnightblue" stroke="midnightblue" points="686.55,-200.08 681.38,-190.83 679.65,-201.29 686.55,-200.08"/>
</g>
<!-- Node9 -->
<g id="node9" class="node">
<title>Node9</title>
<g id="a_node9"><a xlink:href="classwx_aui_m_d_i_parent_frame.html" target="_top" xlink:title=" ">
<polygon fill="none" stroke="black" points="746,-304.5 746,-323.5 874,-323.5 874,-304.5 746,-304.5"/>
<text text-anchor="middle" x="810" y="-311.5" font-family="Helvetica,sans-Serif" font-size="10.00">wxAuiMDIParentFrame</text>
</a>
</g>
</g>
<!-- Node1&#45;&gt;Node9 -->
<g id="edge8" class="edge">
<title>Node1&#45;&gt;Node9</title>
<path fill="none" stroke="midnightblue" d="M686.08,-200.18C695.11,-225.57 714.46,-270.04 746,-295 750.93,-298.9 756.64,-302 762.59,-304.47"/>
<polygon fill="midnightblue" stroke="midnightblue" points="689.35,-198.93 682.84,-190.57 682.72,-201.17 689.35,-198.93"/>
</g>
<!-- Node10 -->
<g id="node10" class="node">
<title>Node10</title>
<g id="a_node10"><a xlink:href="classwx_doc_child_frame.html" target="_top" xlink:title="The wxDocChildFrame class provides a default frame for displaying documents on separate windows.">
<polygon fill="none" stroke="black" points="757.5,-266.5 757.5,-285.5 862.5,-285.5 862.5,-266.5 757.5,-266.5"/>
<text text-anchor="middle" x="810" y="-273.5" font-family="Helvetica,sans-Serif" font-size="10.00">wxDocChildFrame</text>
</a>
</g>
</g>
<!-- Node1&#45;&gt;Node10 -->
<g id="edge9" class="edge">
<title>Node1&#45;&gt;Node10</title>
<path fill="none" stroke="midnightblue" d="M691.47,-199.36C703.17,-216.64 722.85,-242.02 746,-257 751.95,-260.85 758.71,-263.95 765.54,-266.43"/>
<polygon fill="midnightblue" stroke="midnightblue" points="694.22,-197.18 685.82,-190.72 688.36,-201 694.22,-197.18"/>
</g>
<!-- Node11 -->
<g id="node11" class="node">
<title>Node11</title>
<g id="a_node11"><a xlink:href="classwx_doc_parent_frame.html" target="_top" xlink:title="The wxDocParentFrame class provides a default top&#45;level frame for applications using the document/vie...">
<polygon fill="none" stroke="black" points="754.5,-228.5 754.5,-247.5 865.5,-247.5 865.5,-228.5 754.5,-228.5"/>
<text text-anchor="middle" x="810" y="-235.5" font-family="Helvetica,sans-Serif" font-size="10.00">wxDocParentFrame</text>
</a>
</g>
</g>
<!-- Node1&#45;&gt;Node11 -->
<g id="edge10" class="edge">
<title>Node1&#45;&gt;Node11</title>
<path fill="none" stroke="midnightblue" d="M703.17,-196.09C715.53,-203.69 731.2,-212.61 746,-219 754.29,-222.58 763.46,-225.76 772.18,-228.44"/>
<polygon fill="midnightblue" stroke="midnightblue" points="704.77,-192.96 694.44,-190.61 701.04,-198.89 704.77,-192.96"/>
</g>
<!-- Node12 -->
<g id="node12" class="node">
<title>Node12</title>
<g id="a_node12"><a xlink:href="classwx_html_help_frame.html" target="_top" xlink:title="This class is used by wxHtmlHelpController to display help.">
<polygon fill="none" stroke="black" points="756,-190.5 756,-209.5 864,-209.5 864,-190.5 756,-190.5"/>
<text text-anchor="middle" x="810" y="-197.5" font-family="Helvetica,sans-Serif" font-size="10.00">wxHtmlHelpFrame</text>
</a>
</g>
</g>
<!-- Node1&#45;&gt;Node12 -->
<g id="edge11" class="edge">
<title>Node1&#45;&gt;Node12</title>
<path fill="none" stroke="midnightblue" d="M720.25,-186.93C731.56,-188.59 744.03,-190.43 755.96,-192.19"/>
<polygon fill="midnightblue" stroke="midnightblue" points="720.65,-183.45 710.24,-185.45 719.63,-190.37 720.65,-183.45"/>
</g>
<!-- Node13 -->
<g id="node13" class="node">
<title>Node13</title>
<g id="a_node13"><a xlink:href="classwx_m_d_i_child_frame.html" target="_top" xlink:title="An MDI child frame is a frame that can only exist inside a wxMDIClientWindow, which is itself a child...">
<polygon fill="none" stroke="black" points="757,-152.5 757,-171.5 863,-171.5 863,-152.5 757,-152.5"/>
<text text-anchor="middle" x="810" y="-159.5" font-family="Helvetica,sans-Serif" font-size="10.00">wxMDIChildFrame</text>
</a>
</g>
</g>
<!-- Node1&#45;&gt;Node13 -->
<g id="edge12" class="edge">
<title>Node1&#45;&gt;Node13</title>
<path fill="none" stroke="midnightblue" d="M720.48,-175.04C732.05,-173.33 744.82,-171.45 756.98,-169.66"/>
<polygon fill="midnightblue" stroke="midnightblue" points="719.63,-171.63 710.24,-176.55 720.65,-178.55 719.63,-171.63"/>
</g>
<!-- Node15 -->
<g id="node15" class="node">
<title>Node15</title>
<g id="a_node15"><a xlink:href="classwx_m_d_i_parent_frame.html" target="_top" xlink:title="An MDI (Multiple Document Interface) parent frame is a window which can contain MDI child frames in i...">
<polygon fill="none" stroke="black" points="754,-114.5 754,-133.5 866,-133.5 866,-114.5 754,-114.5"/>
<text text-anchor="middle" x="810" y="-121.5" font-family="Helvetica,sans-Serif" font-size="10.00">wxMDIParentFrame</text>
</a>
</g>
</g>
<!-- Node1&#45;&gt;Node15 -->
<g id="edge14" class="edge">
<title>Node1&#45;&gt;Node15</title>
<path fill="none" stroke="midnightblue" d="M703.17,-165.91C715.53,-158.31 731.2,-149.39 746,-143 754.29,-139.42 763.46,-136.24 772.18,-133.56"/>
<polygon fill="midnightblue" stroke="midnightblue" points="701.04,-163.11 694.44,-171.39 704.77,-169.04 701.04,-163.11"/>
</g>
<!-- Node17 -->
<g id="node17" class="node">
<title>Node17</title>
<g id="a_node17"><a xlink:href="classwx_mini_frame.html" target="_top" xlink:title="A miniframe is a frame with a small title bar.">
<polygon fill="none" stroke="black" points="768.5,-76.5 768.5,-95.5 851.5,-95.5 851.5,-76.5 768.5,-76.5"/>
<text text-anchor="middle" x="810" y="-83.5" font-family="Helvetica,sans-Serif" font-size="10.00">wxMiniFrame</text>
</a>
</g>
</g>
<!-- Node1&#45;&gt;Node17 -->
<g id="edge16" class="edge">
<title>Node1&#45;&gt;Node17</title>
<path fill="none" stroke="midnightblue" d="M691.47,-162.64C703.17,-145.36 722.85,-119.98 746,-105 752.71,-100.66 760.47,-97.27 768.19,-94.64"/>
<polygon fill="midnightblue" stroke="midnightblue" points="688.36,-161 685.82,-171.28 694.22,-164.82 688.36,-161"/>
</g>
<!-- Node18 -->
<g id="node18" class="node">
<title>Node18</title>
<g id="a_node18"><a xlink:href="classwx_preview_frame.html" target="_top" xlink:title="This class provides the default method of managing the print preview interface.">
<polygon fill="none" stroke="black" points="759.5,-38.5 759.5,-57.5 860.5,-57.5 860.5,-38.5 759.5,-38.5"/>
<text text-anchor="middle" x="810" y="-45.5" font-family="Helvetica,sans-Serif" font-size="10.00">wxPreviewFrame</text>
</a>
</g>
</g>
<!-- Node1&#45;&gt;Node18 -->
<g id="edge17" class="edge">
<title>Node1&#45;&gt;Node18</title>
<path fill="none" stroke="midnightblue" d="M686.08,-161.82C695.11,-136.43 714.46,-91.96 746,-67 750.93,-63.1 756.64,-60 762.59,-57.53"/>
<polygon fill="midnightblue" stroke="midnightblue" points="682.72,-160.83 682.84,-171.43 689.35,-163.07 682.72,-160.83"/>
</g>
<!-- Node19 -->
<g id="node19" class="node">
<title>Node19</title>
<g id="a_node19"><a xlink:href="classwx_splash_screen.html" target="_top" xlink:title="wxSplashScreen shows a window with a thin border, displaying a bitmap describing your application.">
<polygon fill="none" stroke="black" points="762,-0.5 762,-19.5 858,-19.5 858,-0.5 762,-0.5"/>
<text text-anchor="middle" x="810" y="-7.5" font-family="Helvetica,sans-Serif" font-size="10.00">wxSplashScreen</text>
</a>
</g>
</g>
<!-- Node1&#45;&gt;Node19 -->
<g id="edge18" class="edge">
<title>Node1&#45;&gt;Node19</title>
<path fill="none" stroke="midnightblue" d="M683.13,-161.13C689.28,-128.73 706.01,-64.58 746,-29 750.61,-24.9 756.08,-21.68 761.84,-19.16"/>
<polygon fill="midnightblue" stroke="midnightblue" points="679.65,-160.71 681.38,-171.17 686.55,-161.92 679.65,-160.71"/>
</g>
<!-- Node2 -->
<g id="node2" class="node">
<title>Node2</title>
<g id="a_node2"><a xlink:href="classwx_top_level_window.html" target="_top" xlink:title="wxTopLevelWindow is a common base class for wxDialog and wxFrame.">
<polygon fill="none" stroke="black" points="499,-171.5 499,-190.5 612,-190.5 612,-171.5 499,-171.5"/>
<text text-anchor="middle" x="555.5" y="-178.5" font-family="Helvetica,sans-Serif" font-size="10.00">wxTopLevelWindow</text>
</a>
</g>
</g>
<!-- Node2&#45;&gt;Node1 -->
<g id="edge1" class="edge">
<title>Node2&#45;&gt;Node1</title>
<path fill="none" stroke="midnightblue" d="M622.32,-181C631.2,-181 639.94,-181 647.77,-181"/>
<polygon fill="midnightblue" stroke="midnightblue" points="622.27,-177.5 612.27,-181 622.27,-184.5 622.27,-177.5"/>
</g>
<!-- Node3 -->
<g id="node3" class="node">
<title>Node3</title>
<g id="a_node3"><a xlink:href="classwx_non_owned_window.html" target="_top" xlink:title="Common base class for all non&#45;child windows.">
<polygon fill="none" stroke="black" points="340,-171.5 340,-190.5 463,-190.5 463,-171.5 340,-171.5"/>
<text text-anchor="middle" x="401.5" y="-178.5" font-family="Helvetica,sans-Serif" font-size="10.00">wxNonOwnedWindow</text>
</a>
</g>
</g>
<!-- Node3&#45;&gt;Node2 -->
<g id="edge2" class="edge">
<title>Node3&#45;&gt;Node2</title>
<path fill="none" stroke="midnightblue" d="M473.03,-181C481.62,-181 490.3,-181 498.64,-181"/>
<polygon fill="midnightblue" stroke="midnightblue" points="473.01,-177.5 463.01,-181 473.01,-184.5 473.01,-177.5"/>
</g>
<!-- Node4 -->
<g id="node4" class="node">
<title>Node4</title>
<g id="a_node4"><a xlink:href="classwx_window.html" target="_top" xlink:title="wxWindow is the base class for all windows and represents any visible object on screen.">
<polygon fill="none" stroke="black" points="234,-171.5 234,-190.5 304,-190.5 304,-171.5 234,-171.5"/>
<text text-anchor="middle" x="269" y="-178.5" font-family="Helvetica,sans-Serif" font-size="10.00">wxWindow</text>
</a>
</g>
</g>
<!-- Node4&#45;&gt;Node3 -->
<g id="edge3" class="edge">
<title>Node4&#45;&gt;Node3</title>
<path fill="none" stroke="midnightblue" d="M314.39,-181C322.62,-181 331.34,-181 339.94,-181"/>
<polygon fill="midnightblue" stroke="midnightblue" points="314.29,-177.5 304.29,-181 314.29,-184.5 314.29,-177.5"/>
</g>
<!-- Node5 -->
<g id="node5" class="node">
<title>Node5</title>
<g id="a_node5"><a xlink:href="classwx_evt_handler.html" target="_top" xlink:title="A class that can handle events from the windowing system.">
<polygon fill="none" stroke="black" points="113,-171.5 113,-190.5 198,-190.5 198,-171.5 113,-171.5"/>
<text text-anchor="middle" x="155.5" y="-178.5" font-family="Helvetica,sans-Serif" font-size="10.00">wxEvtHandler</text>
</a>
</g>
</g>
<!-- Node5&#45;&gt;Node4 -->
<g id="edge4" class="edge">
<title>Node5&#45;&gt;Node4</title>
<path fill="none" stroke="midnightblue" d="M208.11,-181C216.8,-181 225.63,-181 233.74,-181"/>
<polygon fill="midnightblue" stroke="midnightblue" points="208.02,-177.5 198.02,-181 208.02,-184.5 208.02,-177.5"/>
</g>
<!-- Node6 -->
<g id="node6" class="node">
<title>Node6</title>
<g id="a_node6"><a xlink:href="classwx_object.html" target="_top" xlink:title="This is the root class of many of the wxWidgets classes.">
<polygon fill="none" stroke="black" points="7.5,-190.5 7.5,-209.5 69.5,-209.5 69.5,-190.5 7.5,-190.5"/>
<text text-anchor="middle" x="38.5" y="-197.5" font-family="Helvetica,sans-Serif" font-size="10.00">wxObject</text>
</a>
</g>
</g>
<!-- Node6&#45;&gt;Node5 -->
<g id="edge5" class="edge">
<title>Node6&#45;&gt;Node5</title>
<path fill="none" stroke="midnightblue" d="M79.67,-193.36C90.4,-191.59 102.01,-189.67 112.81,-187.89"/>
<polygon fill="midnightblue" stroke="midnightblue" points="79.01,-189.92 69.71,-195.01 80.15,-196.83 79.01,-189.92"/>
</g>
<!-- Node7 -->
<g id="node7" class="node">
<title>Node7</title>
<g id="a_node7"><a xlink:href="classwx_trackable.html" target="_top" xlink:title="Add&#45;on base class for a trackable object.">
<polygon fill="none" stroke="black" points="0,-152.5 0,-171.5 77,-171.5 77,-152.5 0,-152.5"/>
<text text-anchor="middle" x="38.5" y="-159.5" font-family="Helvetica,sans-Serif" font-size="10.00">wxTrackable</text>
</a>
</g>
</g>
<!-- Node7&#45;&gt;Node5 -->
<g id="edge6" class="edge">
<title>Node7&#45;&gt;Node5</title>
<path fill="none" stroke="midnightblue" d="M87.29,-169.89C95.75,-171.29 104.5,-172.74 112.78,-174.11"/>
<polygon fill="midnightblue" stroke="midnightblue" points="87.59,-166.4 77.16,-168.22 86.45,-173.3 87.59,-166.4"/>
</g>
<!-- Node14 -->
<g id="node14" class="node">
<title>Node14</title>
<g id="a_node14"><a xlink:href="classwx_doc_m_d_i_child_frame.html" target="_top" xlink:title="The wxDocMDIChildFrame class provides a default frame for displaying documents on separate windows.">
<polygon fill="none" stroke="black" points="913,-152.5 913,-171.5 1038,-171.5 1038,-152.5 913,-152.5"/>
<text text-anchor="middle" x="975.5" y="-159.5" font-family="Helvetica,sans-Serif" font-size="10.00">wxDocMDIChildFrame</text>
</a>
</g>
</g>
<!-- Node13&#45;&gt;Node14 -->
<g id="edge13" class="edge">
<title>Node13&#45;&gt;Node14</title>
<path fill="none" stroke="midnightblue" d="M873.38,-162C886.31,-162 899.92,-162 912.83,-162"/>
<polygon fill="midnightblue" stroke="midnightblue" points="873.18,-158.5 863.18,-162 873.18,-165.5 873.18,-158.5"/>
</g>
<!-- Node16 -->
<g id="node16" class="node">
<title>Node16</title>
<g id="a_node16"><a xlink:href="classwx_doc_m_d_i_parent_frame.html" target="_top" xlink:title="The wxDocMDIParentFrame class provides a default top&#45;level frame for applications using the document/...">
<polygon fill="none" stroke="black" points="910,-114.5 910,-133.5 1041,-133.5 1041,-114.5 910,-114.5"/>
<text text-anchor="middle" x="975.5" y="-121.5" font-family="Helvetica,sans-Serif" font-size="10.00">wxDocMDIParentFrame</text>
</a>
</g>
</g>
<!-- Node15&#45;&gt;Node16 -->
<g id="edge15" class="edge">
<title>Node15&#45;&gt;Node16</title>
<path fill="none" stroke="midnightblue" d="M876.36,-124C887.4,-124 898.86,-124 909.89,-124"/>
<polygon fill="midnightblue" stroke="midnightblue" points="876.35,-120.5 866.35,-124 876.35,-127.5 876.35,-120.5"/>
</g>
</g>
</svg>
