<?xml version="1.0" encoding="UTF-8" standalone="no"?>
<!DOCTYPE svg PUBLIC "-//W3C//DTD SVG 1.1//EN"
 "http://www.w3.org/Graphics/SVG/1.1/DTD/svg11.dtd">
<!-- Generated by graphviz version 2.43.0 (0)
 -->
<!-- Title: wxMouseEvent Pages: 1 -->
<svg width="190pt" height="140pt"
 viewBox="0.00 0.00 190.00 140.00" xmlns="http://www.w3.org/2000/svg" xmlns:xlink="http://www.w3.org/1999/xlink">
<g id="graph0" class="graph" transform="scale(1 1) rotate(0) translate(4 136)">
<title>wxMouseEvent</title>
<!-- Node1 -->
<g id="node1" class="node">
<title>Node1</title>
<g id="a_node1"><a xlink:title="This event class contains information about the events generated by the mouse: they include mouse but...">
<polygon fill="#bfbfbf" stroke="black" points="35.5,-0.5 35.5,-19.5 126.5,-19.5 126.5,-0.5 35.5,-0.5"/>
<text text-anchor="middle" x="81" y="-7.5" font-family="Helvetica,sans-Serif" font-size="10.00">wxMouseEvent</text>
</a>
</g>
</g>
<!-- Node2 -->
<g id="node2" class="node">
<title>Node2</title>
<g id="a_node2"><a xlink:href="classwx_event.html" target="_top" xlink:title="An event is a structure holding information about an event passed to a callback or member function.">
<polygon fill="none" stroke="black" points="3.5,-56.5 3.5,-75.5 62.5,-75.5 62.5,-56.5 3.5,-56.5"/>
<text text-anchor="middle" x="33" y="-63.5" font-family="Helvetica,sans-Serif" font-size="10.00">wxEvent</text>
</a>
</g>
</g>
<!-- Node2&#45;&gt;Node1 -->
<g id="edge1" class="edge">
<title>Node2&#45;&gt;Node1</title>
<path fill="none" stroke="midnightblue" d="M47.73,-48.43C56.14,-38.97 66.35,-27.48 73.22,-19.75"/>
<polygon fill="midnightblue" stroke="midnightblue" points="44.95,-46.28 40.93,-56.08 50.19,-50.93 44.95,-46.28"/>
</g>
<!-- Node3 -->
<g id="node3" class="node">
<title>Node3</title>
<g id="a_node3"><a xlink:href="classwx_object.html" target="_top" xlink:title="This is the root class of many of the wxWidgets classes.">
<polygon fill="none" stroke="black" points="0,-112.5 0,-131.5 62,-131.5 62,-112.5 0,-112.5"/>
<text text-anchor="middle" x="31" y="-119.5" font-family="Helvetica,sans-Serif" font-size="10.00">wxObject</text>
</a>
</g>
</g>
<!-- Node3&#45;&gt;Node2 -->
<g id="edge2" class="edge">
<title>Node3&#45;&gt;Node2</title>
<path fill="none" stroke="midnightblue" d="M31.71,-101.8C32.04,-92.91 32.42,-82.78 32.68,-75.75"/>
<polygon fill="midnightblue" stroke="midnightblue" points="28.2,-101.96 31.33,-112.08 35.2,-102.22 28.2,-101.96"/>
</g>
<!-- Node4 -->
<g id="node4" class="node">
<title>Node4</title>
<g id="a_node4"><a xlink:href="classwx_mouse_state.html" target="_top" xlink:title="Represents the mouse state.">
<polygon fill="none" stroke="black" points="84.5,-56.5 84.5,-75.5 173.5,-75.5 173.5,-56.5 84.5,-56.5"/>
<text text-anchor="middle" x="129" y="-63.5" font-family="Helvetica,sans-Serif" font-size="10.00">wxMouseState</text>
</a>
</g>
</g>
<!-- Node4&#45;&gt;Node1 -->
<g id="edge3" class="edge">
<title>Node4&#45;&gt;Node1</title>
<path fill="none" stroke="midnightblue" d="M114.27,-48.43C105.86,-38.97 95.65,-27.48 88.78,-19.75"/>
<polygon fill="midnightblue" stroke="midnightblue" points="111.81,-50.93 121.07,-56.08 117.05,-46.28 111.81,-50.93"/>
</g>
<!-- Node5 -->
<g id="node5" class="node">
<title>Node5</title>
<g id="a_node5"><a xlink:href="classwx_keyboard_state.html" target="_top" xlink:title="Provides methods for testing the state of the keyboard modifier keys.">
<polygon fill="none" stroke="black" points="80,-112.5 80,-131.5 182,-131.5 182,-112.5 80,-112.5"/>
<text text-anchor="middle" x="131" y="-119.5" font-family="Helvetica,sans-Serif" font-size="10.00">wxKeyboardState</text>
</a>
</g>
</g>
<!-- Node5&#45;&gt;Node4 -->
<g id="edge4" class="edge">
<title>Node5&#45;&gt;Node4</title>
<path fill="none" stroke="midnightblue" d="M130.29,-101.8C129.96,-92.91 129.58,-82.78 129.32,-75.75"/>
<polygon fill="midnightblue" stroke="midnightblue" points="126.8,-102.22 130.67,-112.08 133.8,-101.96 126.8,-102.22"/>
</g>
</g>
</svg>
