<?xml version="1.0" encoding="UTF-8" standalone="no"?>
<!DOCTYPE svg PUBLIC "-//W3C//DTD SVG 1.1//EN"
 "http://www.w3.org/Graphics/SVG/1.1/DTD/svg11.dtd">
<!-- Generated by graphviz version 2.43.0 (0)
 -->
<!-- Title: wxDataViewModel Pages: 1 -->
<svg width="375pt" height="252pt"
 viewBox="0.00 0.00 375.00 252.00" xmlns="http://www.w3.org/2000/svg" xmlns:xlink="http://www.w3.org/1999/xlink">
<g id="graph0" class="graph" transform="scale(1 1) rotate(0) translate(4 248)">
<title>wxDataViewModel</title>
<!-- Node1 -->
<g id="node1" class="node">
<title>Node1</title>
<g id="a_node1"><a xlink:title="wxDataViewModel is the base class for all data model to be displayed by a wxDataViewCtrl.">
<polygon fill="#bfbfbf" stroke="black" points="179,-168.5 179,-187.5 287,-187.5 287,-168.5 179,-168.5"/>
<text text-anchor="middle" x="233" y="-175.5" font-family="Helvetica,sans-Serif" font-size="10.00">wxDataViewModel</text>
</a>
</g>
</g>
<!-- Node3 -->
<g id="node3" class="node">
<title>Node3</title>
<g id="a_node3"><a xlink:href="classwx_data_view_list_model.html" target="_top" xlink:title="Base class with abstract API for wxDataViewIndexListModel and wxDataViewVirtualListModel.">
<polygon fill="none" stroke="black" points="99.5,-112.5 99.5,-131.5 224.5,-131.5 224.5,-112.5 99.5,-112.5"/>
<text text-anchor="middle" x="162" y="-119.5" font-family="Helvetica,sans-Serif" font-size="10.00">wxDataViewListModel</text>
</a>
</g>
</g>
<!-- Node1&#45;&gt;Node3 -->
<g id="edge2" class="edge">
<title>Node1&#45;&gt;Node3</title>
<path fill="none" stroke="midnightblue" d="M213.41,-162.1C200.63,-152.38 184.39,-140.03 173.61,-131.83"/>
<polygon fill="midnightblue" stroke="midnightblue" points="211.51,-165.06 221.59,-168.32 215.75,-159.48 211.51,-165.06"/>
</g>
<!-- Node7 -->
<g id="node7" class="node">
<title>Node7</title>
<g id="a_node7"><a xlink:href="classwx_data_view_tree_store.html" target="_top" xlink:title="wxDataViewTreeStore is a specialised wxDataViewModel for storing simple trees very much like wxTreeCt...">
<polygon fill="none" stroke="black" points="243,-112.5 243,-131.5 367,-131.5 367,-112.5 243,-112.5"/>
<text text-anchor="middle" x="305" y="-119.5" font-family="Helvetica,sans-Serif" font-size="10.00">wxDataViewTreeStore</text>
</a>
</g>
</g>
<!-- Node1&#45;&gt;Node7 -->
<g id="edge6" class="edge">
<title>Node1&#45;&gt;Node7</title>
<path fill="none" stroke="midnightblue" d="M252.87,-162.1C265.82,-152.38 282.3,-140.03 293.22,-131.83"/>
<polygon fill="midnightblue" stroke="midnightblue" points="250.47,-159.52 244.57,-168.32 254.67,-165.12 250.47,-159.52"/>
</g>
<!-- Node2 -->
<g id="node2" class="node">
<title>Node2</title>
<g id="a_node2"><a xlink:href="classwx_ref_counter.html" target="_top" xlink:title="This class is used to manage reference&#45;counting providing a simple interface and a counter.">
<polygon fill="none" stroke="black" points="190,-224.5 190,-243.5 276,-243.5 276,-224.5 190,-224.5"/>
<text text-anchor="middle" x="233" y="-231.5" font-family="Helvetica,sans-Serif" font-size="10.00">wxRefCounter</text>
</a>
</g>
</g>
<!-- Node2&#45;&gt;Node1 -->
<g id="edge1" class="edge">
<title>Node2&#45;&gt;Node1</title>
<path fill="none" stroke="midnightblue" d="M233,-213.8C233,-204.91 233,-194.78 233,-187.75"/>
<polygon fill="midnightblue" stroke="midnightblue" points="229.5,-214.08 233,-224.08 236.5,-214.08 229.5,-214.08"/>
</g>
<!-- Node4 -->
<g id="node4" class="node">
<title>Node4</title>
<g id="a_node4"><a xlink:href="classwx_data_view_index_list_model.html" target="_top" xlink:title="wxDataViewIndexListModel is a specialized data model which lets you address an item by its position (...">
<polygon fill="none" stroke="black" points="0,-56.5 0,-75.5 152,-75.5 152,-56.5 0,-56.5"/>
<text text-anchor="middle" x="76" y="-63.5" font-family="Helvetica,sans-Serif" font-size="10.00">wxDataViewIndexListModel</text>
</a>
</g>
</g>
<!-- Node3&#45;&gt;Node4 -->
<g id="edge3" class="edge">
<title>Node3&#45;&gt;Node4</title>
<path fill="none" stroke="midnightblue" d="M139.55,-106.9C123.78,-97 103.19,-84.07 89.78,-75.65"/>
<polygon fill="midnightblue" stroke="midnightblue" points="137.85,-109.97 148.18,-112.32 141.57,-104.04 137.85,-109.97"/>
</g>
<!-- Node6 -->
<g id="node6" class="node">
<title>Node6</title>
<g id="a_node6"><a xlink:href="classwx_data_view_virtual_list_model.html" target="_top" xlink:title="wxDataViewVirtualListModel is a specialized data model which lets you address an item by its position...">
<polygon fill="none" stroke="black" points="170,-56.5 170,-75.5 328,-75.5 328,-56.5 170,-56.5"/>
<text text-anchor="middle" x="249" y="-63.5" font-family="Helvetica,sans-Serif" font-size="10.00">wxDataViewVirtualListModel</text>
</a>
</g>
</g>
<!-- Node3&#45;&gt;Node6 -->
<g id="edge5" class="edge">
<title>Node3&#45;&gt;Node6</title>
<path fill="none" stroke="midnightblue" d="M184.72,-106.9C200.67,-97 221.5,-84.07 235.06,-75.65"/>
<polygon fill="midnightblue" stroke="midnightblue" points="182.63,-104.08 175.98,-112.32 186.32,-110.02 182.63,-104.08"/>
</g>
<!-- Node5 -->
<g id="node5" class="node">
<title>Node5</title>
<g id="a_node5"><a xlink:href="classwx_data_view_list_store.html" target="_top" xlink:title="wxDataViewListStore is a specialised wxDataViewModel for storing a simple table of data.">
<polygon fill="none" stroke="black" points="15.5,-0.5 15.5,-19.5 136.5,-19.5 136.5,-0.5 15.5,-0.5"/>
<text text-anchor="middle" x="76" y="-7.5" font-family="Helvetica,sans-Serif" font-size="10.00">wxDataViewListStore</text>
</a>
</g>
</g>
<!-- Node4&#45;&gt;Node5 -->
<g id="edge4" class="edge">
<title>Node4&#45;&gt;Node5</title>
<path fill="none" stroke="midnightblue" d="M76,-45.8C76,-36.91 76,-26.78 76,-19.75"/>
<polygon fill="midnightblue" stroke="midnightblue" points="72.5,-46.08 76,-56.08 79.5,-46.08 72.5,-46.08"/>
</g>
</g>
</svg>
