<?xml version="1.0" encoding="UTF-8" standalone="no"?>
<!DOCTYPE svg PUBLIC "-//W3C//DTD SVG 1.1//EN"
 "http://www.w3.org/Graphics/SVG/1.1/DTD/svg11.dtd">
<!-- Generated by graphviz version 2.43.0 (0)
 -->
<!-- Title: wxGridRangeSelectEvent Pages: 1 -->
<svg width="148pt" height="252pt"
 viewBox="0.00 0.00 148.00 252.00" xmlns="http://www.w3.org/2000/svg" xmlns:xlink="http://www.w3.org/1999/xlink">
<g id="graph0" class="graph" transform="scale(1 1) rotate(0) translate(4 248)">
<title>wxGridRangeSelectEvent</title>
<!-- Node1 -->
<g id="node1" class="node">
<title>Node1</title>
<g id="a_node1"><a xlink:title="Events of this class notify about a range of cells being selected.">
<polygon fill="#bfbfbf" stroke="black" points="0,-0.5 0,-19.5 140,-19.5 140,-0.5 0,-0.5"/>
<text text-anchor="middle" x="70" y="-7.5" font-family="Helvetica,sans-Serif" font-size="10.00">wxGridRangeSelectEvent</text>
</a>
</g>
</g>
<!-- Node2 -->
<g id="node2" class="node">
<title>Node2</title>
<g id="a_node2"><a xlink:href="classwx_notify_event.html" target="_top" xlink:title="This class is not used by the event handlers by itself, but is a base class for other event classes (...">
<polygon fill="none" stroke="black" points="26,-56.5 26,-75.5 114,-75.5 114,-56.5 26,-56.5"/>
<text text-anchor="middle" x="70" y="-63.5" font-family="Helvetica,sans-Serif" font-size="10.00">wxNotifyEvent</text>
</a>
</g>
</g>
<!-- Node2&#45;&gt;Node1 -->
<g id="edge1" class="edge">
<title>Node2&#45;&gt;Node1</title>
<path fill="none" stroke="midnightblue" d="M70,-45.8C70,-36.91 70,-26.78 70,-19.75"/>
<polygon fill="midnightblue" stroke="midnightblue" points="66.5,-46.08 70,-56.08 73.5,-46.08 66.5,-46.08"/>
</g>
<!-- Node3 -->
<g id="node3" class="node">
<title>Node3</title>
<g id="a_node3"><a xlink:href="classwx_command_event.html" target="_top" xlink:title="This event class contains information about command events, which originate from a variety of simple ...">
<polygon fill="none" stroke="black" points="15.5,-112.5 15.5,-131.5 124.5,-131.5 124.5,-112.5 15.5,-112.5"/>
<text text-anchor="middle" x="70" y="-119.5" font-family="Helvetica,sans-Serif" font-size="10.00">wxCommandEvent</text>
</a>
</g>
</g>
<!-- Node3&#45;&gt;Node2 -->
<g id="edge2" class="edge">
<title>Node3&#45;&gt;Node2</title>
<path fill="none" stroke="midnightblue" d="M70,-101.8C70,-92.91 70,-82.78 70,-75.75"/>
<polygon fill="midnightblue" stroke="midnightblue" points="66.5,-102.08 70,-112.08 73.5,-102.08 66.5,-102.08"/>
</g>
<!-- Node4 -->
<g id="node4" class="node">
<title>Node4</title>
<g id="a_node4"><a xlink:href="classwx_event.html" target="_top" xlink:title="An event is a structure holding information about an event passed to a callback or member function.">
<polygon fill="none" stroke="black" points="40.5,-168.5 40.5,-187.5 99.5,-187.5 99.5,-168.5 40.5,-168.5"/>
<text text-anchor="middle" x="70" y="-175.5" font-family="Helvetica,sans-Serif" font-size="10.00">wxEvent</text>
</a>
</g>
</g>
<!-- Node4&#45;&gt;Node3 -->
<g id="edge3" class="edge">
<title>Node4&#45;&gt;Node3</title>
<path fill="none" stroke="midnightblue" d="M70,-157.8C70,-148.91 70,-138.78 70,-131.75"/>
<polygon fill="midnightblue" stroke="midnightblue" points="66.5,-158.08 70,-168.08 73.5,-158.08 66.5,-158.08"/>
</g>
<!-- Node5 -->
<g id="node5" class="node">
<title>Node5</title>
<g id="a_node5"><a xlink:href="classwx_object.html" target="_top" xlink:title="This is the root class of many of the wxWidgets classes.">
<polygon fill="none" stroke="black" points="39,-224.5 39,-243.5 101,-243.5 101,-224.5 39,-224.5"/>
<text text-anchor="middle" x="70" y="-231.5" font-family="Helvetica,sans-Serif" font-size="10.00">wxObject</text>
</a>
</g>
</g>
<!-- Node5&#45;&gt;Node4 -->
<g id="edge4" class="edge">
<title>Node5&#45;&gt;Node4</title>
<path fill="none" stroke="midnightblue" d="M70,-213.8C70,-204.91 70,-194.78 70,-187.75"/>
<polygon fill="midnightblue" stroke="midnightblue" points="66.5,-214.08 70,-224.08 73.5,-214.08 66.5,-214.08"/>
</g>
</g>
</svg>
