<?xml version="1.0" encoding="UTF-8" standalone="no"?>
<!DOCTYPE svg PUBLIC "-//W3C//DTD SVG 1.1//EN"
 "http://www.w3.org/Graphics/SVG/1.1/DTD/svg11.dtd">
<!-- Generated by graphviz version 2.43.0 (0)
 -->
<!-- Title: wxPrintout Pages: 1 -->
<svg width="230pt" height="140pt"
 viewBox="0.00 0.00 229.50 140.00" xmlns="http://www.w3.org/2000/svg" xmlns:xlink="http://www.w3.org/1999/xlink">
<g id="graph0" class="graph" transform="scale(1 1) rotate(0) translate(4 136)">
<title>wxPrintout</title>
<!-- Node1 -->
<g id="node1" class="node">
<title>Node1</title>
<g id="a_node1"><a xlink:title="This class encapsulates the functionality of printing out an application document.">
<polygon fill="#bfbfbf" stroke="black" points="72,-56.5 72,-75.5 141,-75.5 141,-56.5 72,-56.5"/>
<text text-anchor="middle" x="106.5" y="-63.5" font-family="Helvetica,sans-Serif" font-size="10.00">wxPrintout</text>
</a>
</g>
</g>
<!-- Node3 -->
<g id="node3" class="node">
<title>Node3</title>
<g id="a_node3"><a xlink:href="classwx_html_printout.html" target="_top" xlink:title="This class serves as printout class for HTML documents.">
<polygon fill="none" stroke="black" points="0,-0.5 0,-19.5 93,-19.5 93,-0.5 0,-0.5"/>
<text text-anchor="middle" x="46.5" y="-7.5" font-family="Helvetica,sans-Serif" font-size="10.00">wxHtmlPrintout</text>
</a>
</g>
</g>
<!-- Node1&#45;&gt;Node3 -->
<g id="edge2" class="edge">
<title>Node1&#45;&gt;Node3</title>
<path fill="none" stroke="midnightblue" d="M89.32,-49.54C78.62,-39.91 65.24,-27.87 56.32,-19.83"/>
<polygon fill="midnightblue" stroke="midnightblue" points="87.09,-52.24 96.86,-56.32 91.77,-47.03 87.09,-52.24"/>
</g>
<!-- Node4 -->
<g id="node4" class="node">
<title>Node4</title>
<g id="a_node4"><a xlink:href="classwx_rich_text_printout.html" target="_top" xlink:title="This class implements print layout for wxRichTextBuffer.">
<polygon fill="none" stroke="black" points="111.5,-0.5 111.5,-19.5 221.5,-19.5 221.5,-0.5 111.5,-0.5"/>
<text text-anchor="middle" x="166.5" y="-7.5" font-family="Helvetica,sans-Serif" font-size="10.00">wxRichTextPrintout</text>
</a>
</g>
</g>
<!-- Node1&#45;&gt;Node4 -->
<g id="edge3" class="edge">
<title>Node1&#45;&gt;Node4</title>
<path fill="none" stroke="midnightblue" d="M123.68,-49.54C134.38,-39.91 147.76,-27.87 156.68,-19.83"/>
<polygon fill="midnightblue" stroke="midnightblue" points="121.23,-47.03 116.14,-56.32 125.91,-52.24 121.23,-47.03"/>
</g>
<!-- Node2 -->
<g id="node2" class="node">
<title>Node2</title>
<g id="a_node2"><a xlink:href="classwx_object.html" target="_top" xlink:title="This is the root class of many of the wxWidgets classes.">
<polygon fill="none" stroke="black" points="75.5,-112.5 75.5,-131.5 137.5,-131.5 137.5,-112.5 75.5,-112.5"/>
<text text-anchor="middle" x="106.5" y="-119.5" font-family="Helvetica,sans-Serif" font-size="10.00">wxObject</text>
</a>
</g>
</g>
<!-- Node2&#45;&gt;Node1 -->
<g id="edge1" class="edge">
<title>Node2&#45;&gt;Node1</title>
<path fill="none" stroke="midnightblue" d="M106.5,-101.8C106.5,-92.91 106.5,-82.78 106.5,-75.75"/>
<polygon fill="midnightblue" stroke="midnightblue" points="103,-102.08 106.5,-112.08 110,-102.08 103,-102.08"/>
</g>
</g>
</svg>
