<?xml version="1.0" encoding="UTF-8" standalone="no"?>
<!DOCTYPE svg PUBLIC "-//W3C//DTD SVG 1.1//EN"
 "http://www.w3.org/Graphics/SVG/1.1/DTD/svg11.dtd">
<!-- Generated by graphviz version 2.43.0 (0)
 -->
<!-- Title: wxPGEditor Pages: 1 -->
<svg width="534pt" height="142pt"
 viewBox="0.00 0.00 534.00 142.00" xmlns="http://www.w3.org/2000/svg" xmlns:xlink="http://www.w3.org/1999/xlink">
<g id="graph0" class="graph" transform="scale(1 1) rotate(0) translate(4 138)">
<title>wxPGEditor</title>
<!-- Node1 -->
<g id="node1" class="node">
<title>Node1</title>
<g id="a_node1"><a xlink:title="Base class for custom wxPropertyGrid editors.">
<polygon fill="#bfbfbf" stroke="black" points="98,-76.5 98,-95.5 171,-95.5 171,-76.5 98,-76.5"/>
<text text-anchor="middle" x="134.5" y="-83.5" font-family="Helvetica,sans-Serif" font-size="10.00">wxPGEditor</text>
</a>
</g>
</g>
<!-- Node3 -->
<g id="node3" class="node">
<title>Node3</title>
<g id="a_node3"><a xlink:href="classwx_p_g_check_box_editor.html" target="_top" xlink:title=" ">
<polygon fill="none" stroke="black" points="207,-114.5 207,-133.5 329,-133.5 329,-114.5 207,-114.5"/>
<text text-anchor="middle" x="268" y="-121.5" font-family="Helvetica,sans-Serif" font-size="10.00">wxPGCheckBoxEditor</text>
</a>
</g>
</g>
<!-- Node1&#45;&gt;Node3 -->
<g id="edge2" class="edge">
<title>Node1&#45;&gt;Node3</title>
<path fill="none" stroke="midnightblue" d="M178.38,-98.39C196.39,-103.59 217.01,-109.55 233.83,-114.41"/>
<polygon fill="midnightblue" stroke="midnightblue" points="179.26,-95 168.68,-95.59 177.32,-101.73 179.26,-95"/>
</g>
<!-- Node4 -->
<g id="node4" class="node">
<title>Node4</title>
<g id="a_node4"><a xlink:href="classwx_p_g_choice_editor.html" target="_top" xlink:title=" ">
<polygon fill="none" stroke="black" points="215,-76.5 215,-95.5 321,-95.5 321,-76.5 215,-76.5"/>
<text text-anchor="middle" x="268" y="-83.5" font-family="Helvetica,sans-Serif" font-size="10.00">wxPGChoiceEditor</text>
</a>
</g>
</g>
<!-- Node1&#45;&gt;Node4 -->
<g id="edge3" class="edge">
<title>Node1&#45;&gt;Node4</title>
<path fill="none" stroke="midnightblue" d="M181.14,-86C191.94,-86 203.53,-86 214.59,-86"/>
<polygon fill="midnightblue" stroke="midnightblue" points="181.09,-82.5 171.09,-86 181.09,-89.5 181.09,-82.5"/>
</g>
<!-- Node7 -->
<g id="node7" class="node">
<title>Node7</title>
<g id="a_node7"><a xlink:href="classwx_p_g_text_ctrl_editor.html" target="_top" xlink:title=" ">
<polygon fill="none" stroke="black" points="213,-38.5 213,-57.5 323,-57.5 323,-38.5 213,-38.5"/>
<text text-anchor="middle" x="268" y="-45.5" font-family="Helvetica,sans-Serif" font-size="10.00">wxPGTextCtrlEditor</text>
</a>
</g>
</g>
<!-- Node1&#45;&gt;Node7 -->
<g id="edge6" class="edge">
<title>Node1&#45;&gt;Node7</title>
<path fill="none" stroke="midnightblue" d="M178.38,-73.61C196.39,-68.41 217.01,-62.45 233.83,-57.59"/>
<polygon fill="midnightblue" stroke="midnightblue" points="177.32,-70.27 168.68,-76.41 179.26,-77 177.32,-70.27"/>
</g>
<!-- Node2 -->
<g id="node2" class="node">
<title>Node2</title>
<g id="a_node2"><a xlink:href="classwx_object.html" target="_top" xlink:title="This is the root class of many of the wxWidgets classes.">
<polygon fill="none" stroke="black" points="0,-76.5 0,-95.5 62,-95.5 62,-76.5 0,-76.5"/>
<text text-anchor="middle" x="31" y="-83.5" font-family="Helvetica,sans-Serif" font-size="10.00">wxObject</text>
</a>
</g>
</g>
<!-- Node2&#45;&gt;Node1 -->
<g id="edge1" class="edge">
<title>Node2&#45;&gt;Node1</title>
<path fill="none" stroke="midnightblue" d="M72.25,-86C80.72,-86 89.6,-86 97.89,-86"/>
<polygon fill="midnightblue" stroke="midnightblue" points="72.18,-82.5 62.18,-86 72.18,-89.5 72.18,-82.5"/>
</g>
<!-- Node5 -->
<g id="node5" class="node">
<title>Node5</title>
<g id="a_node5"><a xlink:href="classwx_p_g_choice_and_button_editor.html" target="_top" xlink:title=" ">
<polygon fill="none" stroke="black" points="367,-114.5 367,-133.5 524,-133.5 524,-114.5 367,-114.5"/>
<text text-anchor="middle" x="445.5" y="-121.5" font-family="Helvetica,sans-Serif" font-size="10.00">wxPGChoiceAndButtonEditor</text>
</a>
</g>
</g>
<!-- Node4&#45;&gt;Node5 -->
<g id="edge4" class="edge">
<title>Node4&#45;&gt;Node5</title>
<path fill="none" stroke="midnightblue" d="M323.28,-97.75C348.09,-103.13 377.11,-109.41 400.53,-114.48"/>
<polygon fill="midnightblue" stroke="midnightblue" points="323.8,-94.28 313.29,-95.59 322.32,-101.13 323.8,-94.28"/>
</g>
<!-- Node6 -->
<g id="node6" class="node">
<title>Node6</title>
<g id="a_node6"><a xlink:href="classwx_p_g_combo_box_editor.html" target="_top" xlink:title=" ">
<polygon fill="none" stroke="black" points="382.5,-76.5 382.5,-95.5 508.5,-95.5 508.5,-76.5 382.5,-76.5"/>
<text text-anchor="middle" x="445.5" y="-83.5" font-family="Helvetica,sans-Serif" font-size="10.00">wxPGComboBoxEditor</text>
</a>
</g>
</g>
<!-- Node4&#45;&gt;Node6 -->
<g id="edge5" class="edge">
<title>Node4&#45;&gt;Node6</title>
<path fill="none" stroke="midnightblue" d="M331.3,-86C347.86,-86 365.75,-86 382.3,-86"/>
<polygon fill="midnightblue" stroke="midnightblue" points="331.18,-82.5 321.18,-86 331.18,-89.5 331.18,-82.5"/>
</g>
<!-- Node8 -->
<g id="node8" class="node">
<title>Node8</title>
<g id="a_node8"><a xlink:href="classwx_p_g_spin_ctrl_editor.html" target="_top" xlink:title=" ">
<polygon fill="none" stroke="black" points="390,-38.5 390,-57.5 501,-57.5 501,-38.5 390,-38.5"/>
<text text-anchor="middle" x="445.5" y="-45.5" font-family="Helvetica,sans-Serif" font-size="10.00">wxPGSpinCtrlEditor</text>
</a>
</g>
</g>
<!-- Node7&#45;&gt;Node8 -->
<g id="edge7" class="edge">
<title>Node7&#45;&gt;Node8</title>
<path fill="none" stroke="midnightblue" d="M333.25,-48C351.87,-48 372.02,-48 389.99,-48"/>
<polygon fill="midnightblue" stroke="midnightblue" points="333.09,-44.5 323.09,-48 333.09,-51.5 333.09,-44.5"/>
</g>
<!-- Node9 -->
<g id="node9" class="node">
<title>Node9</title>
<g id="a_node9"><a xlink:href="classwx_p_g_text_ctrl_and_button_editor.html" target="_top" xlink:title=" ">
<polygon fill="none" stroke="black" points="365,-0.5 365,-19.5 526,-19.5 526,-0.5 365,-0.5"/>
<text text-anchor="middle" x="445.5" y="-7.5" font-family="Helvetica,sans-Serif" font-size="10.00">wxPGTextCtrlAndButtonEditor</text>
</a>
</g>
</g>
<!-- Node7&#45;&gt;Node9 -->
<g id="edge8" class="edge">
<title>Node7&#45;&gt;Node9</title>
<path fill="none" stroke="midnightblue" d="M323.28,-36.25C348.09,-30.87 377.11,-24.59 400.53,-19.52"/>
<polygon fill="midnightblue" stroke="midnightblue" points="322.32,-32.87 313.29,-38.41 323.8,-39.72 322.32,-32.87"/>
</g>
</g>
</svg>
