<?xml version="1.0" encoding="UTF-8" standalone="no"?>
<!DOCTYPE svg PUBLIC "-//W3C//DTD SVG 1.1//EN"
 "http://www.w3.org/Graphics/SVG/1.1/DTD/svg11.dtd">
<!-- Generated by graphviz version 2.43.0 (0)
 -->
<!-- Title: wxScrolled&lt; T &gt; Pages: 1 -->
<svg width="497pt" height="140pt"
 viewBox="0.00 0.00 497.00 140.00" xmlns="http://www.w3.org/2000/svg" xmlns:xlink="http://www.w3.org/1999/xlink">
<g id="graph0" class="graph" transform="scale(1 1) rotate(0) translate(4 136)">
<title>wxScrolled&lt; T &gt;</title>
<!-- Node1 -->
<g id="node1" class="node">
<title>Node1</title>
<g id="a_node1"><a xlink:title="The wxScrolled class manages scrolling for its client area, transforming the coordinates according to...">
<polygon fill="#bfbfbf" stroke="black" points="174.5,-56.5 174.5,-75.5 272.5,-75.5 272.5,-56.5 174.5,-56.5"/>
<text text-anchor="middle" x="223.5" y="-63.5" font-family="Helvetica,sans-Serif" font-size="10.00">wxScrolled&lt; T &gt;</text>
</a>
</g>
</g>
<!-- Node3 -->
<g id="node3" class="node">
<title>Node3</title>
<g id="a_node3"><a xlink:href="classwx_grid.html" target="_top" xlink:title="wxGrid and its related classes are used for displaying and editing tabular data.">
<polygon fill="none" stroke="black" points="0,-0.5 0,-19.5 127,-19.5 127,-0.5 0,-0.5"/>
<text text-anchor="middle" x="63.5" y="-7.5" font-family="Helvetica,sans-Serif" font-size="10.00">wxGrid&lt; wxWindow &gt;</text>
</a>
</g>
</g>
<!-- Node1&#45;&gt;Node3 -->
<g id="edge2" class="edge">
<title>Node1&#45;&gt;Node3</title>
<path fill="none" stroke="midnightblue" d="M188.45,-53.17C158.33,-43 115.6,-28.59 88.73,-19.52"/>
<polygon fill="midnightblue" stroke="midnightblue" points="187.55,-56.56 198.15,-56.44 189.79,-49.93 187.55,-56.56"/>
</g>
<!-- Node4 -->
<g id="node4" class="node">
<title>Node4</title>
<g id="a_node4"><a xlink:href="classwx_html_window.html" target="_top" xlink:title="wxHtmlWindow is probably the only class you will directly use unless you want to do something special...">
<polygon fill="none" stroke="black" points="145,-0.5 145,-19.5 302,-19.5 302,-0.5 145,-0.5"/>
<text text-anchor="middle" x="223.5" y="-7.5" font-family="Helvetica,sans-Serif" font-size="10.00">wxHtmlWindow&lt; wxPanel &gt;</text>
</a>
</g>
</g>
<!-- Node1&#45;&gt;Node4 -->
<g id="edge3" class="edge">
<title>Node1&#45;&gt;Node4</title>
<path fill="none" stroke="midnightblue" d="M223.5,-45.8C223.5,-36.91 223.5,-26.78 223.5,-19.75"/>
<polygon fill="midnightblue" stroke="midnightblue" points="220,-46.08 223.5,-56.08 227,-46.08 220,-46.08"/>
</g>
<!-- Node5 -->
<g id="node5" class="node">
<title>Node5</title>
<g id="a_node5"><a xlink:href="classwx_preview_canvas.html" target="_top" xlink:title="A preview canvas is the default canvas used by the print preview system to display the preview.">
<polygon fill="none" stroke="black" points="320,-0.5 320,-19.5 489,-19.5 489,-0.5 320,-0.5"/>
<text text-anchor="middle" x="404.5" y="-7.5" font-family="Helvetica,sans-Serif" font-size="10.00">wxPreviewCanvas&lt; wxPanel &gt;</text>
</a>
</g>
</g>
<!-- Node1&#45;&gt;Node5 -->
<g id="edge4" class="edge">
<title>Node1&#45;&gt;Node5</title>
<path fill="none" stroke="midnightblue" d="M261.82,-53.57C295.96,-43.38 345.16,-28.7 375.95,-19.52"/>
<polygon fill="midnightblue" stroke="midnightblue" points="260.76,-50.23 252.18,-56.44 262.76,-56.94 260.76,-50.23"/>
</g>
<!-- Node2 -->
<g id="node2" class="node">
<title>Node2</title>
<g id="a_node2"><a xlink:title=" ">
<polygon fill="none" stroke="#bfbfbf" points="209,-112.5 209,-131.5 238,-131.5 238,-112.5 209,-112.5"/>
<text text-anchor="middle" x="223.5" y="-119.5" font-family="Helvetica,sans-Serif" font-size="10.00">T</text>
</a>
</g>
</g>
<!-- Node2&#45;&gt;Node1 -->
<g id="edge1" class="edge">
<title>Node2&#45;&gt;Node1</title>
<path fill="none" stroke="midnightblue" d="M223.5,-101.8C223.5,-92.91 223.5,-82.78 223.5,-75.75"/>
<polygon fill="midnightblue" stroke="midnightblue" points="220,-102.08 223.5,-112.08 227,-102.08 220,-102.08"/>
</g>
</g>
</svg>
