<?xml version="1.0" encoding="UTF-8" standalone="no"?>
<!DOCTYPE svg PUBLIC "-//W3C//DTD SVG 1.1//EN"
 "http://www.w3.org/Graphics/SVG/1.1/DTD/svg11.dtd">
<!-- Generated by graphviz version 2.43.0 (0)
 -->
<!-- Title: wxGridCellNumberRenderer Pages: 1 -->
<svg width="276pt" height="196pt"
 viewBox="0.00 0.00 276.00 196.00" xmlns="http://www.w3.org/2000/svg" xmlns:xlink="http://www.w3.org/1999/xlink">
<g id="graph0" class="graph" transform="scale(1 1) rotate(0) translate(4 192)">
<title>wxGridCellNumberRenderer</title>
<!-- Node1 -->
<g id="node1" class="node">
<title>Node1</title>
<g id="a_node1"><a xlink:title="This class may be used to format integer data in a cell.">
<polygon fill="#bfbfbf" stroke="black" points="76.5,-0.5 76.5,-19.5 229.5,-19.5 229.5,-0.5 76.5,-0.5"/>
<text text-anchor="middle" x="153" y="-7.5" font-family="Helvetica,sans-Serif" font-size="10.00">wxGridCellNumberRenderer</text>
</a>
</g>
</g>
<!-- Node2 -->
<g id="node2" class="node">
<title>Node2</title>
<g id="a_node2"><a xlink:href="classwx_grid_cell_string_renderer.html" target="_top" xlink:title="This class may be used to format string data in a cell; it is the default for string cells.">
<polygon fill="none" stroke="black" points="81.5,-56.5 81.5,-75.5 224.5,-75.5 224.5,-56.5 81.5,-56.5"/>
<text text-anchor="middle" x="153" y="-63.5" font-family="Helvetica,sans-Serif" font-size="10.00">wxGridCellStringRenderer</text>
</a>
</g>
</g>
<!-- Node2&#45;&gt;Node1 -->
<g id="edge1" class="edge">
<title>Node2&#45;&gt;Node1</title>
<path fill="none" stroke="midnightblue" d="M153,-45.8C153,-36.91 153,-26.78 153,-19.75"/>
<polygon fill="midnightblue" stroke="midnightblue" points="149.5,-46.08 153,-56.08 156.5,-46.08 149.5,-46.08"/>
</g>
<!-- Node3 -->
<g id="node3" class="node">
<title>Node3</title>
<g id="a_node3"><a xlink:href="classwx_grid_cell_renderer.html" target="_top" xlink:title="This class is responsible for actually drawing the cell in the grid.">
<polygon fill="none" stroke="black" points="96,-112.5 96,-131.5 210,-131.5 210,-112.5 96,-112.5"/>
<text text-anchor="middle" x="153" y="-119.5" font-family="Helvetica,sans-Serif" font-size="10.00">wxGridCellRenderer</text>
</a>
</g>
</g>
<!-- Node3&#45;&gt;Node2 -->
<g id="edge2" class="edge">
<title>Node3&#45;&gt;Node2</title>
<path fill="none" stroke="midnightblue" d="M153,-101.8C153,-92.91 153,-82.78 153,-75.75"/>
<polygon fill="midnightblue" stroke="midnightblue" points="149.5,-102.08 153,-112.08 156.5,-102.08 149.5,-102.08"/>
</g>
<!-- Node4 -->
<g id="node4" class="node">
<title>Node4</title>
<g id="a_node4"><a xlink:href="classwx_shared_client_data_container.html" target="_top" xlink:title="This class is a replacement for wxClientDataContainer, and unlike wxClientDataContainer the wxSharedC...">
<polygon fill="none" stroke="black" points="0,-168.5 0,-187.5 164,-187.5 164,-168.5 0,-168.5"/>
<text text-anchor="middle" x="82" y="-175.5" font-family="Helvetica,sans-Serif" font-size="10.00">wxSharedClientDataContainer</text>
</a>
</g>
</g>
<!-- Node4&#45;&gt;Node3 -->
<g id="edge3" class="edge">
<title>Node4&#45;&gt;Node3</title>
<path fill="none" stroke="midnightblue" d="M101.59,-162.1C114.37,-152.38 130.61,-140.03 141.39,-131.83"/>
<polygon fill="midnightblue" stroke="midnightblue" points="99.25,-159.48 93.41,-168.32 103.49,-165.06 99.25,-159.48"/>
</g>
<!-- Node5 -->
<g id="node5" class="node">
<title>Node5</title>
<g id="a_node5"><a xlink:href="classwx_ref_counter.html" target="_top" xlink:title="This class is used to manage reference&#45;counting providing a simple interface and a counter.">
<polygon fill="none" stroke="black" points="182,-168.5 182,-187.5 268,-187.5 268,-168.5 182,-168.5"/>
<text text-anchor="middle" x="225" y="-175.5" font-family="Helvetica,sans-Serif" font-size="10.00">wxRefCounter</text>
</a>
</g>
</g>
<!-- Node5&#45;&gt;Node3 -->
<g id="edge4" class="edge">
<title>Node5&#45;&gt;Node3</title>
<path fill="none" stroke="midnightblue" d="M205.13,-162.1C192.18,-152.38 175.7,-140.03 164.78,-131.83"/>
<polygon fill="midnightblue" stroke="midnightblue" points="203.33,-165.12 213.43,-168.32 207.53,-159.52 203.33,-165.12"/>
</g>
</g>
</svg>
