<?xml version="1.0" encoding="UTF-8" standalone="no"?>
<!DOCTYPE svg PUBLIC "-//W3C//DTD SVG 1.1//EN"
 "http://www.w3.org/Graphics/SVG/1.1/DTD/svg11.dtd">
<!-- Generated by graphviz version 2.43.0 (0)
 -->
<!-- Title: wxSizer Pages: 1 -->
<svg width="474pt" height="252pt"
 viewBox="0.00 0.00 473.50 252.00" xmlns="http://www.w3.org/2000/svg" xmlns:xlink="http://www.w3.org/1999/xlink">
<g id="graph0" class="graph" transform="scale(1 1) rotate(0) translate(4 248)">
<title>wxSizer</title>
<!-- Node1 -->
<g id="node1" class="node">
<title>Node1</title>
<g id="a_node1"><a xlink:title="wxSizer is the abstract base class used for laying out subwindows in a window.">
<polygon fill="#bfbfbf" stroke="black" points="267,-168.5 267,-187.5 322,-187.5 322,-168.5 267,-168.5"/>
<text text-anchor="middle" x="294.5" y="-175.5" font-family="Helvetica,sans-Serif" font-size="10.00">wxSizer</text>
</a>
</g>
</g>
<!-- Node3 -->
<g id="node3" class="node">
<title>Node3</title>
<g id="a_node3"><a xlink:href="classwx_box_sizer.html" target="_top" xlink:title="The basic idea behind a box sizer is that windows will most often be laid out in rather simple basic ...">
<polygon fill="none" stroke="black" points="211.5,-112.5 211.5,-131.5 285.5,-131.5 285.5,-112.5 211.5,-112.5"/>
<text text-anchor="middle" x="248.5" y="-119.5" font-family="Helvetica,sans-Serif" font-size="10.00">wxBoxSizer</text>
</a>
</g>
</g>
<!-- Node1&#45;&gt;Node3 -->
<g id="edge2" class="edge">
<title>Node1&#45;&gt;Node3</title>
<path fill="none" stroke="midnightblue" d="M280.39,-160.43C272.32,-150.97 262.54,-139.48 255.95,-131.75"/>
<polygon fill="midnightblue" stroke="midnightblue" points="277.75,-162.74 286.9,-168.08 283.08,-158.2 277.75,-162.74"/>
</g>
<!-- Node7 -->
<g id="node7" class="node">
<title>Node7</title>
<g id="a_node7"><a xlink:href="classwx_grid_sizer.html" target="_top" xlink:title="A grid sizer is a sizer which lays out its children in a two&#45;dimensional table with all table fields ...">
<polygon fill="none" stroke="black" points="342,-112.5 342,-131.5 417,-131.5 417,-112.5 342,-112.5"/>
<text text-anchor="middle" x="379.5" y="-119.5" font-family="Helvetica,sans-Serif" font-size="10.00">wxGridSizer</text>
</a>
</g>
</g>
<!-- Node1&#45;&gt;Node7 -->
<g id="edge6" class="edge">
<title>Node1&#45;&gt;Node7</title>
<path fill="none" stroke="midnightblue" d="M316.69,-162.9C332.28,-153 352.63,-140.07 365.88,-131.65"/>
<polygon fill="midnightblue" stroke="midnightblue" points="314.72,-160.01 308.16,-168.32 318.47,-165.92 314.72,-160.01"/>
</g>
<!-- Node2 -->
<g id="node2" class="node">
<title>Node2</title>
<g id="a_node2"><a xlink:href="classwx_object.html" target="_top" xlink:title="This is the root class of many of the wxWidgets classes.">
<polygon fill="none" stroke="black" points="263.5,-224.5 263.5,-243.5 325.5,-243.5 325.5,-224.5 263.5,-224.5"/>
<text text-anchor="middle" x="294.5" y="-231.5" font-family="Helvetica,sans-Serif" font-size="10.00">wxObject</text>
</a>
</g>
</g>
<!-- Node2&#45;&gt;Node1 -->
<g id="edge1" class="edge">
<title>Node2&#45;&gt;Node1</title>
<path fill="none" stroke="midnightblue" d="M294.5,-213.8C294.5,-204.91 294.5,-194.78 294.5,-187.75"/>
<polygon fill="midnightblue" stroke="midnightblue" points="291,-214.08 294.5,-224.08 298,-214.08 291,-214.08"/>
</g>
<!-- Node4 -->
<g id="node4" class="node">
<title>Node4</title>
<g id="a_node4"><a xlink:href="classwx_static_box_sizer.html" target="_top" xlink:title="wxStaticBoxSizer is a sizer derived from wxBoxSizer but adds a static box around the sizer.">
<polygon fill="none" stroke="black" points="0,-56.5 0,-75.5 101,-75.5 101,-56.5 0,-56.5"/>
<text text-anchor="middle" x="50.5" y="-63.5" font-family="Helvetica,sans-Serif" font-size="10.00">wxStaticBoxSizer</text>
</a>
</g>
</g>
<!-- Node3&#45;&gt;Node4 -->
<g id="edge3" class="edge">
<title>Node3&#45;&gt;Node4</title>
<path fill="none" stroke="midnightblue" d="M207.06,-109.7C169.69,-99.51 115.56,-84.74 81.73,-75.52"/>
<polygon fill="midnightblue" stroke="midnightblue" points="206.56,-113.19 217.13,-112.44 208.4,-106.44 206.56,-113.19"/>
</g>
<!-- Node5 -->
<g id="node5" class="node">
<title>Node5</title>
<g id="a_node5"><a xlink:href="classwx_std_dialog_button_sizer.html" target="_top" xlink:title="This class creates button layouts which conform to the standard button spacing and ordering defined b...">
<polygon fill="none" stroke="black" points="119.5,-56.5 119.5,-75.5 253.5,-75.5 253.5,-56.5 119.5,-56.5"/>
<text text-anchor="middle" x="186.5" y="-63.5" font-family="Helvetica,sans-Serif" font-size="10.00">wxStdDialogButtonSizer</text>
</a>
</g>
</g>
<!-- Node3&#45;&gt;Node5 -->
<g id="edge4" class="edge">
<title>Node3&#45;&gt;Node5</title>
<path fill="none" stroke="midnightblue" d="M230.75,-105.54C219.69,-95.91 205.87,-83.87 196.64,-75.83"/>
<polygon fill="midnightblue" stroke="midnightblue" points="228.7,-108.4 238.54,-112.32 233.3,-103.12 228.7,-108.4"/>
</g>
<!-- Node6 -->
<g id="node6" class="node">
<title>Node6</title>
<g id="a_node6"><a xlink:href="classwx_wrap_sizer.html" target="_top" xlink:title="A wrap sizer lays out its items in a single line, like a box sizer – as long as there is space availa...">
<polygon fill="none" stroke="black" points="271.5,-56.5 271.5,-75.5 351.5,-75.5 351.5,-56.5 271.5,-56.5"/>
<text text-anchor="middle" x="311.5" y="-63.5" font-family="Helvetica,sans-Serif" font-size="10.00">wxWrapSizer</text>
</a>
</g>
</g>
<!-- Node3&#45;&gt;Node6 -->
<g id="edge5" class="edge">
<title>Node3&#45;&gt;Node6</title>
<path fill="none" stroke="midnightblue" d="M266.54,-105.54C277.77,-95.91 291.82,-83.87 301.19,-75.83"/>
<polygon fill="midnightblue" stroke="midnightblue" points="263.94,-103.16 258.62,-112.32 268.49,-108.47 263.94,-103.16"/>
</g>
<!-- Node8 -->
<g id="node8" class="node">
<title>Node8</title>
<g id="a_node8"><a xlink:href="classwx_flex_grid_sizer.html" target="_top" xlink:title="A flex grid sizer is a sizer which lays out its children in a two&#45;dimensional table with all table fi...">
<polygon fill="none" stroke="black" points="369.5,-56.5 369.5,-75.5 465.5,-75.5 465.5,-56.5 369.5,-56.5"/>
<text text-anchor="middle" x="417.5" y="-63.5" font-family="Helvetica,sans-Serif" font-size="10.00">wxFlexGridSizer</text>
</a>
</g>
</g>
<!-- Node7&#45;&gt;Node8 -->
<g id="edge7" class="edge">
<title>Node7&#45;&gt;Node8</title>
<path fill="none" stroke="midnightblue" d="M391.56,-103.86C398.14,-94.5 406.01,-83.33 411.34,-75.75"/>
<polygon fill="midnightblue" stroke="midnightblue" points="388.67,-101.89 385.77,-112.08 394.39,-105.92 388.67,-101.89"/>
</g>
<!-- Node9 -->
<g id="node9" class="node">
<title>Node9</title>
<g id="a_node9"><a xlink:href="classwx_grid_bag_sizer.html" target="_top" xlink:title="A wxSizer that can lay out items in a virtual grid like a wxFlexGridSizer but in this case explicit p...">
<polygon fill="none" stroke="black" points="370.5,-0.5 370.5,-19.5 464.5,-19.5 464.5,-0.5 370.5,-0.5"/>
<text text-anchor="middle" x="417.5" y="-7.5" font-family="Helvetica,sans-Serif" font-size="10.00">wxGridBagSizer</text>
</a>
</g>
</g>
<!-- Node8&#45;&gt;Node9 -->
<g id="edge8" class="edge">
<title>Node8&#45;&gt;Node9</title>
<path fill="none" stroke="midnightblue" d="M417.5,-45.8C417.5,-36.91 417.5,-26.78 417.5,-19.75"/>
<polygon fill="midnightblue" stroke="midnightblue" points="414,-46.08 417.5,-56.08 421,-46.08 414,-46.08"/>
</g>
</g>
</svg>
