<?xml version="1.0" encoding="UTF-8" standalone="no"?>
<!DOCTYPE svg PUBLIC "-//W3C//DTD SVG 1.1//EN"
 "http://www.w3.org/Graphics/SVG/1.1/DTD/svg11.dtd">
<!-- Generated by graphviz version 2.43.0 (0)
 -->
<!-- Title: Pixels Pages: 1 -->
<svg width="578pt" height="253pt"
 viewBox="0.00 0.00 578.33 252.61" xmlns="http://www.w3.org/2000/svg" xmlns:xlink="http://www.w3.org/1999/xlink">
<g id="graph0" class="graph" transform="scale(1 1) rotate(0) translate(4 248.61)">
<title>Pixels</title>
<polygon fill="white" stroke="transparent" points="-4,4 -4,-248.61 574.33,-248.61 574.33,4 -4,4"/>
<!-- LP -->
<g id="node1" class="node">
<title>LP</title>
<polygon fill="lightblue" stroke="black" points="330.87,-213.58 304.3,-244.63 251.15,-244.63 224.58,-213.58 251.15,-182.53 304.3,-182.53 330.87,-213.58"/>
<text text-anchor="middle" x="277.72" y="-217.38" font-family="Helvetica,sans-Serif" font-size="14.00">Logical</text>
<text text-anchor="middle" x="277.72" y="-202.38" font-family="Helvetica,sans-Serif" font-size="14.00">Pixels</text>
</g>
<!-- DIP -->
<g id="node2" class="node">
<title>DIP</title>
<polygon fill="yellow" stroke="black" points="91.67,-38.53 68.7,-69.58 22.75,-69.58 -0.22,-38.53 22.75,-7.47 68.7,-7.47 91.67,-38.53"/>
<text text-anchor="middle" x="45.72" y="-42.33" font-family="Helvetica,sans-Serif" font-size="14.00">DI</text>
<text text-anchor="middle" x="45.72" y="-27.33" font-family="Helvetica,sans-Serif" font-size="14.00">Pixels</text>
</g>
<!-- LP&#45;&gt;DIP -->
<g id="edge2" class="edge">
<title>LP&#45;&gt;DIP</title>
<path fill="none" stroke="black" d="M237.45,-182.54C194.05,-150.17 125.53,-99.06 83.24,-67.51"/>
<polygon fill="black" stroke="black" points="235.36,-185.34 245.47,-188.52 239.54,-179.73 235.36,-185.34"/>
<polygon fill="black" stroke="black" points="85.25,-64.65 75.14,-61.47 81.07,-70.26 85.25,-64.65"/>
<text text-anchor="middle" x="133.89" y="-69.96" font-family="Helvetica,sans-Serif" font-size="14.00">ToDIP()</text>
<text text-anchor="middle" x="186.72" y="-172.63" font-family="Helvetica,sans-Serif" font-size="14.00">FromDIP()</text>
</g>
<!-- PP -->
<g id="node3" class="node">
<title>PP</title>
<polygon fill="green" stroke="black" points="570.43,-38.53 540.58,-69.58 480.87,-69.58 451.02,-38.53 480.87,-7.47 540.58,-7.47 570.43,-38.53"/>
<text text-anchor="middle" x="510.72" y="-42.33" font-family="Helvetica,sans-Serif" font-size="14.00">Physical</text>
<text text-anchor="middle" x="510.72" y="-27.33" font-family="Helvetica,sans-Serif" font-size="14.00">Pixels</text>
</g>
<!-- LP&#45;&gt;PP -->
<g id="edge1" class="edge">
<title>LP&#45;&gt;PP</title>
<path fill="none" stroke="black" d="M318.15,-182.56C360.08,-151.41 425.37,-102.92 468.1,-71.19"/>
<polygon fill="black" stroke="black" points="316.06,-179.75 310.12,-188.52 320.24,-185.37 316.06,-179.75"/>
<polygon fill="black" stroke="black" points="470.39,-73.85 476.33,-65.07 466.21,-68.23 470.39,-73.85"/>
<text text-anchor="middle" x="426.66" y="-67.12" font-family="Helvetica,sans-Serif" font-size="14.00">ToPhys()</text>
<text text-anchor="middle" x="359.79" y="-179.07" font-family="Helvetica,sans-Serif" font-size="14.00">FromPhys()</text>
</g>
<!-- DIP&#45;&gt;PP -->
<g id="edge3" class="edge">
<title>DIP&#45;&gt;PP</title>
<path fill="none" stroke="black" d="M101.66,-38.53C186.7,-38.53 348.36,-38.53 440.95,-38.53"/>
<polygon fill="black" stroke="black" points="101.58,-35.03 91.58,-38.53 101.58,-42.03 101.58,-35.03"/>
<polygon fill="black" stroke="black" points="441.07,-42.03 451.07,-38.53 441.07,-35.03 441.07,-42.03"/>
<text text-anchor="middle" x="271.28" y="-45.33" font-family="Helvetica,sans-Serif" font-size="14.00">GetDPIScaleFactor()</text>
<text text-anchor="middle" x="411.57" y="-42.33" font-family="Helvetica,sans-Serif" font-size="14.00">multiply by</text>
<text text-anchor="middle" x="123.58" y="-42.33" font-family="Helvetica,sans-Serif" font-size="14.00">divide by</text>
</g>
</g>
</svg>
